<svg id="fundamentos" xmlns="http://www.w3.org/2000/svg" xmlns:xlink="http://www.w3.org/1999/xlink" viewBox="0 0 142.4 129.07"><defs><style>.cls-1{fill:none;}.cls-2{clip-path:url(#clip-path);}.cls-3{fill:#212121;}.cls-4{fill:#2f6bb3;}.cls-5{fill:#44a4dc;}.cls-6{clip-path:url(#clip-path-2);}.cls-7{fill:#fff;}</style><clipPath id="clip-path"><ellipse class="cls-1" cx="71.2" cy="64.53" rx="48.2" ry="47.05"/></clipPath><clipPath id="clip-path-2"><circle class="cls-1" cx="70.75" cy="64.53" r="47.75"/></clipPath></defs><g id="css"><g class="cls-2"><rect class="cls-3" x="4.77" y="-1.9" width="132.86" height="132.86"/></g><polygon class="cls-4" points="46.66 36.17 50.98 87.14 70.72 92.89 90.52 87.23 94.84 36.17 46.66 36.17"/><polygon class="cls-5" points="69.46 41.08 89.18 41.08 84.86 82.53 69.46 86.85 69.46 41.08"/><g class="cls-6"><polygon class="cls-7" points="54.59 46.48 85.81 46.48 83.2 77.92 70.46 81.26 57.82 77.71 56.98 67.76 63.3 67.73 63.8 72.85 70.46 74.89 77.35 72.96 78.19 64.31 56.47 64.55 55.95 58.69 78.73 58.41 79.25 52.22 55.21 52.31 54.59 46.48"/></g></g></svg>