<svg id="fundamentos" xmlns="http://www.w3.org/2000/svg" xmlns:xlink="http://www.w3.org/1999/xlink" viewBox="0 0 96.4 94.06"><defs><style>.cls-1{fill:none;}.cls-2{clip-path:url(#clip-path);}.cls-3{fill:#212121;}.cls-4{fill:#2f6bb3;}.cls-5{fill:#44a4dc;}.cls-6{clip-path:url(#clip-path-2);}.cls-7{fill:#fff;}</style><clipPath id="clip-path"><ellipse class="cls-1" cx="48.2" cy="47.05" rx="48.2" ry="47.05"/></clipPath><clipPath id="clip-path-2"><circle class="cls-1" cx="47.75" cy="47.05" r="47.75"/></clipPath></defs><g id="css"><g class="cls-2"><rect class="cls-3" x="-18.23" y="-19.38" width="132.86" height="132.86"/></g><polygon class="cls-4" points="23.66 18.69 27.98 69.65 47.73 75.41 67.52 69.74 71.84 18.69 23.66 18.69"/><polygon class="cls-5" points="46.46 23.59 66.18 23.59 61.87 65.05 46.46 69.37 46.46 23.59"/><g class="cls-6"><polygon class="cls-7" points="31.59 28.99 62.81 28.99 60.2 60.43 47.46 63.77 34.82 60.22 33.98 50.27 40.3 50.25 40.8 55.37 47.46 57.4 54.35 55.47 55.19 46.83 33.47 47.07 32.95 41.2 55.74 40.93 56.25 34.73 32.21 34.82 31.59 28.99"/></g></g></svg>