<svg id="fundamentos" xmlns="http://www.w3.org/2000/svg" xmlns:xlink="http://www.w3.org/1999/xlink" viewBox="0 0 96.43 94.09"><defs><style>.cls-1{fill:none;}.cls-2{clip-path:url(#clip-path);}.cls-3{fill:#3c3c3b;}.cls-4{fill:#2b2929;}.cls-5{clip-path:url(#clip-path-2);}.cls-6{fill:#ffda00;}.cls-7{fill:#1d1d1b;}</style><clipPath id="clip-path"><ellipse class="cls-1" cx="-64.24" cy="46.76" rx="48.2" ry="47.05"/></clipPath><clipPath id="clip-path-2"><ellipse class="cls-1" cx="48.23" cy="47.05" rx="48.2" ry="47.05"/></clipPath></defs><g id="unix_bash" data-name="unix&amp;bash"><g class="cls-2"><rect class="cls-3" x="-130.74" y="-19.92" width="133" height="133"/><polyline class="cls-4" points="-90.52 46.76 -37.99 112.36 2.26 112.36 2.21 93.8 -37.99 61.7 -40.92 61.7 -69.02 33.46"/></g></g><g id="js_es6" data-name="js es6"><g class="cls-5"><rect class="cls-6" x="-18.22" y="-19.4" width="132.9" height="132.9"/><path class="cls-7" d="M27.86,55.89V38.76h3.22V55.89Zm1.16-14V38.76H39.33v3.11Zm0,7.06V45.82h9v3.11Zm0,7V52.78H39.33v3.11Z"/><path class="cls-7" d="M47.66,56.06a11.91,11.91,0,0,1-2.4-.24,10.24,10.24,0,0,1-2.19-.73,8.37,8.37,0,0,1-1.85-1.15l1.49-2.66A7.15,7.15,0,0,0,45,52.53a8,8,0,0,0,2.66.45,4.66,4.66,0,0,0,2.45-.54A1.68,1.68,0,0,0,51,50.93v0a1.44,1.44,0,0,0-.43-1.13,2.72,2.72,0,0,0-1.15-.59,15.16,15.16,0,0,0-1.55-.31c-.67-.11-1.35-.23-2-.39a6.29,6.29,0,0,1-1.88-.73,3.68,3.68,0,0,1-1.39-1.43A5,5,0,0,1,42,43.85v0A4.77,4.77,0,0,1,43.68,40a7.11,7.11,0,0,1,4.66-1.37,9.15,9.15,0,0,1,2.83.46,10.1,10.1,0,0,1,2.67,1.33L52.48,43.1A8.12,8.12,0,0,0,50.41,42a6.29,6.29,0,0,0-2.07-.37,4.51,4.51,0,0,0-2.29.48,1.53,1.53,0,0,0-.82,1.38h0a1.55,1.55,0,0,0,.49,1.25,3.11,3.11,0,0,0,1.26.63c.52.14,1.07.26,1.67.38s1.32.28,2,.47a6.72,6.72,0,0,1,1.79.79,3.73,3.73,0,0,1,1.29,1.43,4.88,4.88,0,0,1,.49,2.35v0a4.61,4.61,0,0,1-1.71,3.83A7.56,7.56,0,0,1,47.66,56.06Z"/><path class="cls-7" d="M61.43,56.06a4.92,4.92,0,0,1-3.69-1.35,5.26,5.26,0,0,1-1.31-3.82h0a9.42,9.42,0,0,1,.31-2.34,14.54,14.54,0,0,1,.88-2.41l3.47-7.37h3.65L60.62,47.3l-.81-.43A2.25,2.25,0,0,1,62,45.71,4.15,4.15,0,0,1,65.29,47a5.62,5.62,0,0,1,1.16,3.78h0a5.37,5.37,0,0,1-1.31,3.86A4.88,4.88,0,0,1,61.43,56.06Zm0-3.11a1.68,1.68,0,0,0,1.33-.5A2,2,0,0,0,63.22,51h0a2.55,2.55,0,0,0-.46-1.63,1.6,1.6,0,0,0-1.33-.57,1.58,1.58,0,0,0-1.31.58A2.55,2.55,0,0,0,59.65,51h0a2,2,0,0,0,.47,1.42A1.71,1.71,0,0,0,61.43,53Z"/></g></g></svg>