<svg id="fundamentos" xmlns="http://www.w3.org/2000/svg" xmlns:xlink="http://www.w3.org/1999/xlink" viewBox="0 0 96.4 94.09"><defs><style>.cls-1{fill:none;}.cls-2{clip-path:url(#clip-path);}.cls-3{fill:#212121;}.cls-4{fill:#ea5035;}.cls-5{fill:#fff;}</style><clipPath id="clip-path"><ellipse class="cls-1" cx="48.2" cy="47.05" rx="48.2" ry="47.05"/></clipPath></defs><g id="git"><g class="cls-2"><rect class="cls-3" x="-21.39" y="-19.42" width="132.86" height="132.86"/><rect class="cls-4" x="18.41" y="17.25" width="59.59" height="59.59" rx="6.39" transform="translate(-19.15 47.86) rotate(-45)"/><path class="cls-5" d="M72.12,47.08a6.52,6.52,0,1,1-13,0,6.87,6.87,0,0,1,.45-2.4l-7.83-7.83v-.41l-.27.14.27.27V58.23A6.51,6.51,0,1,1,46.53,58V36.79a6.51,6.51,0,0,1-4.3-6.14,6.41,6.41,0,0,1,.58-2.7L34,19.13l3.65-3.66,9,9a6.2,6.2,0,0,1,2.07-.34,6.52,6.52,0,0,1,6.52,6.51,6.42,6.42,0,0,1-.34,2.07l8.3,8.3a6.53,6.53,0,0,1,8.91,6.06Z"/></g></g></svg>