<svg id="fundamentos" xmlns="http://www.w3.org/2000/svg" xmlns:xlink="http://www.w3.org/1999/xlink" viewBox="0 0 131.2 126.4"><defs><style>.cls-1{fill:none;}.cls-2{clip-path:url(#clip-path);}.cls-3{fill:#212121;}.cls-4{fill:#ea5035;}.cls-5{fill:#fff;}</style><clipPath id="clip-path"><ellipse class="cls-1" cx="65.6" cy="68.6" rx="48.2" ry="47.05"/></clipPath></defs><g id="git"><g class="cls-2"><rect class="cls-3" x="-3.99" y="2.14" width="132.86" height="132.86"/><rect class="cls-4" x="35.81" y="38.81" width="59.59" height="59.59" rx="6.39" transform="translate(-29.29 66.48) rotate(-45)"/><path class="cls-5" d="M89.52,68.64a6.52,6.52,0,1,1-12.58-2.4L69.11,58.4V58l-.27.13.27.27V79.78a6.52,6.52,0,1,1-5.18-.28V58.34a6.54,6.54,0,0,1-3.72-8.84L51.4,40.68,55.05,37l9,9a6.51,6.51,0,0,1,8.25,8.25l8.3,8.29A6.77,6.77,0,0,1,83,62.12,6.52,6.52,0,0,1,89.52,68.64Z"/></g></g></svg>