<svg xmlns="http://www.w3.org/2000/svg" viewBox="0 0 96.4 94.09"><defs><style>.cls-1{fill:#1d1d1b;}.cls-2{fill:#fff;}</style></defs><g id="pagina_home" data-name="pagina home"><g id="github"><ellipse id="exterior" class="cls-1" cx="48.2" cy="47.05" rx="48.2" ry="47.05"/><path id="imagem_interna" data-name="imagem interna" class="cls-2" d="M36.2,92.64V82.24s-8.57.28-9.57,0-5.69-2.8-8.66-9.8a7.33,7.33,0,0,0-4.38-3.68s-4.75-3.33,4.27-2c6.13,2.16,5.77,8.49,9.86,9.13,5.62.74,8.65.15,9-.11.18-.14.1-5.44,2-6.36,0,0-20,1-20.88-22.78C17.36,40.81,20,34.94,22.65,33c0,0-3-5.37.43-12.31.07-.14,6.38-1.55,13.12,4.6,0,0,12.25-3.75,24.65.21.21.07,4.06-5.43,13.41-5.05a17.45,17.45,0,0,1,0,12.84c0,.14,5.29,3.32,5.29,13.51s-2.74,19.48-20,22.59c.15.36,1.43.82,1.29,6.63s.09,16.64.09,16.64A49.66,49.66,0,0,1,36.2,92.64Z"/></g></g></svg>