<svg id="fundamentos" xmlns="http://www.w3.org/2000/svg" xmlns:xlink="http://www.w3.org/1999/xlink" viewBox="0 0 96.4 94.09"><defs><style>.cls-1{fill:none;}.cls-2{clip-path:url(#clip-path);}.cls-3{fill:#3c3c3b;}.cls-4{clip-path:url(#clip-path-2);}.cls-5{fill:#212121;}.cls-6{fill:#e45e23;}.cls-7{fill:#e68508;}.cls-8{clip-path:url(#clip-path-3);}.cls-9{fill:#fff;}</style><clipPath id="clip-path"><ellipse class="cls-1" cx="157" cy="46.76" rx="48.2" ry="47.05"/></clipPath><clipPath id="clip-path-2"><ellipse class="cls-1" cx="48.2" cy="47.05" rx="48.2" ry="47.05"/></clipPath><clipPath id="clip-path-3"><circle class="cls-1" cx="48.06" cy="47.05" r="47.05"/></clipPath></defs><g id="unix_bash" data-name="unix&amp;bash"><g class="cls-2"><rect class="cls-3" x="90.49" y="-19.92" width="133" height="133"/></g></g><g id="html5"><g class="cls-4"><rect class="cls-5" x="-18.23" y="-19.38" width="132.86" height="132.86"/></g><g id="fora"><polygon class="cls-6" points="24.07 19.11 28.33 69.31 47.78 74.99 67.28 69.41 71.54 19.11 24.07 19.11"/><g id="Camada_8" data-name="Camada 8"><polygon class="cls-7" points="48.16 23.94 67.59 23.94 63.34 64.78 48.16 69.04 48.16 23.94"/></g></g><g class="cls-8"><polygon class="cls-9" points="62.95 29.41 33.17 29.41 34.78 47.85 55.58 47.85 55.01 55.89 48.18 58.16 41.4 56.08 41.02 50.97 35.16 51.06 35.82 61.04 48.18 64.68 60.5 61.04 61.91 41.61 40.62 41.86 40.03 35.56 62.58 35.75 62.95 29.41"/></g></g></svg>