<svg id="fundamentos" xmlns="http://www.w3.org/2000/svg" xmlns:xlink="http://www.w3.org/1999/xlink" viewBox="0 0 121.2 129.07"><defs><style>.cls-1{fill:none;}.cls-2{clip-path:url(#clip-path);}.cls-3{fill:#212121;}.cls-4{fill:#e45e23;}.cls-5{fill:#e68508;}.cls-6{clip-path:url(#clip-path-2);}.cls-7{fill:#fff;}</style><clipPath id="clip-path"><ellipse class="cls-1" cx="60.6" cy="64.53" rx="48.2" ry="47.05"/></clipPath><clipPath id="clip-path-2"><circle class="cls-1" cx="60.46" cy="64.53" r="47.05"/></clipPath></defs><g id="html5"><g class="cls-2"><rect class="cls-3" x="-5.83" y="-1.9" width="132.86" height="132.86"/></g><g id="fora"><polygon class="cls-4" points="36.47 36.59 40.73 86.8 60.18 92.47 79.68 86.89 83.94 36.59 36.47 36.59"/><g id="Camada_8" data-name="Camada 8"><polygon class="cls-5" points="60.56 41.42 79.99 41.42 75.73 82.27 60.56 86.52 60.56 41.42"/></g></g><g class="cls-6"><polygon class="cls-7" points="75.35 46.9 45.57 46.9 47.18 65.34 67.98 65.34 67.41 73.37 60.58 75.64 53.8 73.56 53.42 68.46 47.56 68.55 48.22 78.53 60.58 82.17 72.9 78.53 74.31 59.1 53.02 59.35 52.43 53.05 74.98 53.23 75.35 46.9"/></g></g></svg>