<svg id="fundamentos" xmlns="http://www.w3.org/2000/svg" xmlns:xlink="http://www.w3.org/1999/xlink" viewBox="0 0 136.97 129.07"><defs><style>.cls-1{fill:none;}.cls-2{clip-path:url(#clip-path);}.cls-3{fill:#212121;}.cls-4{fill:#e4cb00;}.cls-5{fill:#fe0;}.cls-6{clip-path:url(#clip-path-2);}.cls-7{fill:#fff;}</style><clipPath id="clip-path"><ellipse class="cls-1" cx="68.48" cy="64.53" rx="48.2" ry="47.05"/></clipPath><clipPath id="clip-path-2"><circle class="cls-1" cx="68.48" cy="64.53" r="47.56"/></clipPath></defs><g id="javascript"><g class="cls-2"><rect class="cls-3" x="2.06" y="-1.9" width="132.86" height="132.86"/></g><polygon class="cls-4" points="44.17 36.29 48.47 87.04 68.14 92.78 87.86 87.14 92.16 36.29 44.17 36.29"/><polygon class="cls-5" points="67.2 41.17 86.84 41.17 82.54 82.46 67.2 86.77 67.2 41.17"/><g class="cls-6"><polygon class="cls-7" points="75.19 56.89 74.54 50.57 61.48 50.4 60.5 60.01 81.51 60.17 79.82 78.82 67.19 82.5 54.54 78.99 53.59 69.27 59.91 69.24 60.27 74.22 67.19 76.1 73.87 74.08 74.74 66.27 53.59 66.21 55.64 43.63 80.35 43.63 81.51 56.89 75.19 56.89"/></g></g></svg>