<svg xmlns="http://www.w3.org/2000/svg" xmlns:xlink="http://www.w3.org/1999/xlink" viewBox="0 0 96.4 94.61"><defs><style>.cls-1{fill:none;}.cls-2{clip-path:url(#clip-path);}.cls-3{fill:#212121;}.cls-4{fill:#e4cb00;}.cls-5{fill:#fe0;}.cls-6{clip-path:url(#clip-path-2);}.cls-7{fill:#fff;}.cls-8{clip-path:url(#clip-path-3);}.cls-9{clip-path:url(#clip-path-4);}</style><clipPath id="clip-path"><ellipse class="cls-1" cx="48.2" cy="47.56" rx="48.2" ry="47.05"/></clipPath><clipPath id="clip-path-2"><circle class="cls-1" cx="48.2" cy="47.56" r="47.56"/></clipPath><clipPath id="clip-path-3"><ellipse class="cls-1" cx="163.38" cy="47.3" rx="48.2" ry="47.05"/></clipPath><clipPath id="clip-path-4"><ellipse class="cls-1" cx="48.2" cy="161.97" rx="48.2" ry="47.05"/></clipPath></defs><g id="fundamentos"><g id="javascript"><g class="cls-2"><rect class="cls-3" x="-18.23" y="-18.87" width="132.86" height="132.86"/></g><polygon class="cls-4" points="23.89 19.32 28.19 70.07 47.85 75.81 67.57 70.17 71.87 19.32 23.89 19.32"/><polygon class="cls-5" points="46.91 24.2 66.56 24.2 62.26 65.49 46.91 69.79 46.91 24.2"/><g class="cls-6"><polygon class="cls-7" points="54.9 39.92 54.26 33.6 41.2 33.43 40.21 43.03 61.22 43.2 59.54 61.85 46.91 65.53 34.26 62.02 33.3 52.3 39.62 52.27 39.99 57.25 46.91 59.13 53.58 57.11 54.45 49.3 33.3 49.24 35.35 26.66 60.07 26.66 61.22 39.92 54.9 39.92"/></g></g><g id="git"><g class="cls-8"><rect class="cls-3" x="93.79" y="-19.16" width="132.86" height="132.86"/></g></g></g><g id="frontend"><g id="RTL"><g class="cls-9"><rect x="-18.23" y="93.2" width="132.86" height="132.86"/></g></g></g></svg>