<svg id="fundamentos" xmlns="http://www.w3.org/2000/svg" xmlns:xlink="http://www.w3.org/1999/xlink" viewBox="0 0 131.2 129.07"><defs><style>.cls-1{fill:none;}.cls-2{clip-path:url(#clip-path);}.cls-3{fill:#ffda00;}.cls-4{fill:#1d1d1b;}</style><clipPath id="clip-path"><ellipse class="cls-1" cx="65.6" cy="64.53" rx="48.2" ry="47.05"/></clipPath></defs><g id="js_es6" data-name="js es6"><g class="cls-2"><rect class="cls-3" x="-0.85" y="-1.92" width="132.9" height="132.9"/><path class="cls-4" d="M45.23,73.37V56.24h3.22V73.37Zm1.16-14V56.24H56.7v3.11Zm0,7.07V63.31h9v3.11Zm0,7V70.26H56.7v3.11Z"/><path class="cls-4" d="M65,73.55a11.24,11.24,0,0,1-2.4-.25,10,10,0,0,1-2.2-.72,8.54,8.54,0,0,1-1.84-1.15l1.49-2.66A7.15,7.15,0,0,0,62.37,70a8,8,0,0,0,2.66.44,4.77,4.77,0,0,0,2.45-.53,1.69,1.69,0,0,0,.87-1.52h0a1.48,1.48,0,0,0-.43-1.14,2.83,2.83,0,0,0-1.15-.58c-.48-.12-1-.23-1.55-.32s-1.35-.23-2-.38a6.57,6.57,0,0,1-1.88-.73,3.68,3.68,0,0,1-1.39-1.43,5.07,5.07,0,0,1-.52-2.49h0a4.76,4.76,0,0,1,1.65-3.88,7.06,7.06,0,0,1,4.66-1.37,9.15,9.15,0,0,1,2.83.46,9.81,9.81,0,0,1,2.67,1.33l-1.36,2.73a8.49,8.49,0,0,0-2.07-1.07,6.56,6.56,0,0,0-2.07-.37,4.51,4.51,0,0,0-2.29.49A1.53,1.53,0,0,0,62.6,61v0a1.53,1.53,0,0,0,.49,1.24,3,3,0,0,0,1.26.64c.51.13,1.07.26,1.67.38s1.32.28,2,.46a6.74,6.74,0,0,1,1.79.8A3.7,3.7,0,0,1,71.07,66a4.92,4.92,0,0,1,.49,2.36v0a4.63,4.63,0,0,1-1.71,3.84A7.56,7.56,0,0,1,65,73.55Z"/><path class="cls-4" d="M78.8,73.55a4.88,4.88,0,0,1-3.69-1.36,5.22,5.22,0,0,1-1.31-3.81h0A9.42,9.42,0,0,1,74.11,66,14.22,14.22,0,0,1,75,63.62l3.47-7.38h3.65L78,64.78l-.81-.42a2.24,2.24,0,0,1,2.18-1.17,4.16,4.16,0,0,1,3.3,1.34,5.6,5.6,0,0,1,1.16,3.78h0a5.39,5.39,0,0,1-1.31,3.86A4.91,4.91,0,0,1,78.8,73.55Zm0-3.11a1.72,1.72,0,0,0,1.33-.5,2,2,0,0,0,.46-1.42h0a2.55,2.55,0,0,0-.46-1.63,1.61,1.61,0,0,0-1.33-.58,1.59,1.59,0,0,0-1.31.59A2.55,2.55,0,0,0,77,68.52h0a2,2,0,0,0,.47,1.41A1.72,1.72,0,0,0,78.8,70.44Z"/></g></g></svg>