<svg xmlns="http://www.w3.org/2000/svg" viewBox="0 0 96.4 94.09"><defs><style>.cls-1{fill:#1d1d1b;}.cls-2{fill:#fff;}</style></defs><g id="pagina_home" data-name="pagina home"><g id="linkedin"><ellipse class="cls-1" cx="48.2" cy="47.05" rx="48.2" ry="47.05"/><circle class="cls-2" cx="32.62" cy="26.15" r="7.09"/><path class="cls-2" d="M29.75,37.3h5.89a2.58,2.58,0,0,1,2.58,2.58V73a2.58,2.58,0,0,1-2.58,2.58H29.75A2.57,2.57,0,0,1,27.17,73V39.88A2.58,2.58,0,0,1,29.75,37.3Z"/><path class="cls-2" d="M46,37.3h5.89a2.58,2.58,0,0,1,2.58,2.58V73a2.58,2.58,0,0,1-2.58,2.58H46A2.57,2.57,0,0,1,43.4,73V39.88A2.58,2.58,0,0,1,46,37.3Z"/><path class="cls-2" d="M75.86,75.58H68.33a1.75,1.75,0,0,1-1.76-1.75V56.44l-.1-2.71s-.17-6.51-5.93-6.68c-1.09,0-6.24.55-6.1,9.39C54.1,54.62,52,46.06,54.44,42a9.46,9.46,0,0,1,6.1-4.67c5.66-1.53,11-.51,14.08,3.86,2.83,3.34,3,8.2,3,9.17v23.5A1.75,1.75,0,0,1,75.86,75.58Z"/></g></g></svg>