<svg id="fundamentos" xmlns="http://www.w3.org/2000/svg" xmlns:xlink="http://www.w3.org/1999/xlink" viewBox="0 0 96.4 94.66"><defs><style>.cls-1{fill:none;}.cls-2{clip-path:url(#clip-path);}.cls-3{fill:#3c3c3b;}.cls-4{fill:#2b2929;}.cls-5{fill:#fff;}.cls-6{clip-path:url(#clip-path-2);}.cls-7{fill:#212121;}.cls-8{clip-path:url(#clip-path-3);}.cls-9{fill:#ffda00;}</style><clipPath id="clip-path"><ellipse class="cls-1" cx="48.2" cy="47.05" rx="48.2" ry="47.05"/></clipPath><clipPath id="clip-path-2"><ellipse class="cls-1" cx="-60.6" cy="47.33" rx="48.2" ry="47.05"/></clipPath><clipPath id="clip-path-3"><ellipse class="cls-1" cx="160.67" cy="47.33" rx="48.2" ry="47.05"/></clipPath></defs><g id="unix_bash" data-name="unix&amp;bash"><g class="cls-2"><rect class="cls-3" x="-18.31" y="-19.64" width="133" height="133"/><polyline class="cls-4" points="21.92 47.04 74.45 112.65 114.69 112.65 114.65 94.08 74.45 61.98 71.52 61.98 43.42 33.74"/><rect id="retangulo" class="cls-5" x="52.85" y="61.98" width="21.6" height="6.4"/><polygon id="_" data-name="&gt;" class="cls-5" points="43.42 33.74 43.42 39.38 21.92 47.04 21.92 41.14 36.29 36.38 21.92 31.61 21.92 25.71 43.42 33.74"/><polygon class="cls-4" points="21.92 31.61 29.45 38.65 36.29 36.38 21.92 31.61"/></g></g><g id="html5"><g class="cls-6"><rect class="cls-7" x="-127.03" y="-19.1" width="132.86" height="132.86"/></g></g><g id="js_es6" data-name="js es6"><g class="cls-8"><rect class="cls-9" x="94.22" y="-19.12" width="132.9" height="132.9"/></g></g></svg>