<svg xmlns="http://www.w3.org/2000/svg" xmlns:xlink="http://www.w3.org/1999/xlink" viewBox="0 0 1920 2448"><defs><style>.cls-1{fill:none;}.cls-2{opacity:0.5;}.cls-3{clip-path:url(#clip-path);}.cls-4{opacity:0.49;}</style><clipPath id="clip-path"><rect class="cls-1" y="2" width="1920" height="2446"/></clipPath></defs><g id="fundo" class="cls-2"><g class="cls-3"><g id="geometria_direita" data-name="geometria direita"><path d="M1666,1194.41s0,0,0-.06l-155.18-17a9.15,9.15,0,0,1,0,1.48L1662,1195.4l3.56.3A9.63,9.63,0,0,1,1666,1194.41Z"/><path d="M1705.19,1191.94l-22.66,2.42a9,9,0,0,1,.19,1.46l22.51-2.4C1705.2,1192.92,1705.18,1192.43,1705.19,1191.94Z"/><path d="M2121.89,176.48a8,8,0,0,0-10.3,9.65L2004.28,225.8q-.3-.13-.6-.24a8,8,0,0,0-3.15-.41L1968.85,33.61a8,8,0,1,0-9.6-10.31,7.93,7.93,0,0,0-.07,4.91l-124.5,51.23A8,8,0,0,0,1822.53,77L1755.1,8.8a8.06,8.06,0,0,0,1.45-2.56,8,8,0,1,0-14.07,2.08L1662.21,78a8,8,0,0,0-12.56,2l-98.21-46.8a8,8,0,0,0-15.18-5.06,8.29,8.29,0,0,0-.42,2.21l-81.34,6a8,8,0,0,0-5.32-6.25,8.16,8.16,0,0,0-2.26-.41l-6.66-123.82a8,8,0,0,0,6.42-5.34,8,8,0,0,0-5-10.15,8,8,0,0,0-10.15,5,8,8,0,0,0-.24.93l-181.68-21a8,8,0,0,0-5.42-7.76,8,8,0,0,0-10.15,5,8,8,0,0,0,5,10.15,8.05,8.05,0,0,0,3.59.35L1301,144.26a8,8,0,1,0,10.46,10,8.22,8.22,0,0,0,.3-1.26l94.14,1.68a8,8,0,0,0,5.41,7.17,7.89,7.89,0,0,0,3.13.41l42.66,218.5a8,8,0,1,0,9.83,10.25,7.87,7.87,0,0,0,.41-2.9l102.07-13.64a8,8,0,0,0,5.21,5.79l-.71-.18-66,253.37a8,8,0,0,0-8.65,11l-96.41,51.86a8,8,0,1,0-4.38,12.08L1460,861.91a8,8,0,0,0,6.24,14.68L1507.65,969a8,8,0,0,0,1.36,14.54,7.8,7.8,0,0,0,1.33.32L1502.2,1169c.49,0,1-.07,1.48-.07l8.13-185a7.92,7.92,0,0,0,3.52-.93l92.15,124.28-98.14,64.58a.42.42,0,0,1,0,.12,0,0,0,0,1,0,0,3.31,3.31,0,0,1,.6,1.2l98.38-64.74,60.27,81.28a9.59,9.59,0,0,1,1.28-.76l-60.31-81.33,39.89-26.25a8,8,0,0,0,6.73,3l16,103.76a12.22,12.22,0,0,1,1.45-.25l-16-103.74c.32-.08.63-.18.94-.29l50.22,100.87a3.84,3.84,0,0,1,.51-.19l.88-.33-50.29-101a8,8,0,0,0,3.09-10l233-130.51a8,8,0,1,0,5.5-12.45l-73.19-314.5a8,8,0,1,0,3.18-15.67l10.2-118.29a8,8,0,0,0,7.58-10.37L1988,413.64l-.14,2,1.48-2.58.83-.35-.42-.38,126.29-221a6.67,6.67,0,0,0,.74.29,8,8,0,1,0,5.14-15.15ZM1960.18,30.31a8,8,0,0,0,7.22,3.54l31.67,191.55a8,8,0,0,0-3.51,2L1841.81,94.46ZM1523.54,808.24,1607,721.46a8,8,0,0,0,2.42,1.33c.19.07.38.11.57.16l-.46,152.37a8,8,0,0,0-4.86,2.24Zm79.76,70.44a7.84,7.84,0,0,0-1,2,6.59,6.59,0,0,0-.27,1.06l-130.37-12.72a8,8,0,0,0-1.95-5.26l52.42-54.49Zm-88.76-238.17,118.34-24.21L1526,654.1l-12.44-8.74a8.2,8.2,0,0,0,.64-1.41A8,8,0,0,0,1514.54,640.51Zm121.4-23.72a8,8,0,0,0,4.68,4.23l.08,0-27.61,86.33a8,8,0,0,0-7.6,2.66l-78-54.88Zm-216-467.67,72.68-68.88,122.78,111a8,8,0,0,0-1.18,2.22,2.68,2.68,0,0,0-.07.27L1421.8,155A8,8,0,0,0,1419.91,149.12Zm1.5,7.77c0-.14.08-.27.12-.41l192.29,38.7a8,8,0,0,0,2.25,6.46L1571.85,254,1421,158A9.31,9.31,0,0,0,1421.41,156.89Zm195.79,45.7a7.9,7.9,0,0,0,6.1,1.29L1651.37,300a8,8,0,0,0-3.38,2.53l-74.88-47.66Zm12.22-8.89,111.93-45.79a8,8,0,0,0,2.47,2.83l-56.07,97.19-59.3-47.5a8.65,8.65,0,0,0,.9-1.83A8,8,0,0,0,1629.42,193.7Zm34.24-105.58a7.44,7.44,0,0,0,.67-1.49,7.24,7.24,0,0,0,.37-1.63l83.3-.43-.2,52a8,8,0,0,0-5.55,3Zm92.13,52.95,84.63-45.86,154.17,133.27a7.68,7.68,0,0,0-.67,1.15l-.51.19-237.22-83.66A8,8,0,0,0,1755.79,141.07Zm237.51,90.27a8,8,0,0,0,0,3.75l-129.54,43.42L1754.16,149.79a7.82,7.82,0,0,0,1.55-2.23ZM1862.3,279l-88.53,29.68a8,8,0,0,0-4.74-4.35,8.12,8.12,0,0,0-2.69-.42L1750,152.05a7.9,7.9,0,0,0,3-1.3Zm-93.58,40.57L1788.1,361l-115.72,49.07a7.91,7.91,0,0,0-.91-1.34l89.91-90.63a7.84,7.84,0,0,0,2.5,1.4A7.94,7.94,0,0,0,1768.72,319.58Zm-98.31,88.08a7.84,7.84,0,0,0-5.22-1.8L1658.61,347l100.49-32a7.84,7.84,0,0,0,1,1.69Zm-55.68,314.9a8,8,0,0,0,2.54-1.73L1687,737.21l20.48,4.81a8,8,0,0,0,2.42,6.93l-34.68,46.15Zm59.94,73.76-60.24,80.16a8,8,0,0,0-1.62-.77,8.35,8.35,0,0,0-1.81-.38l.46-152.14a7.74,7.74,0,0,0,2.15-.15Zm33.11-55.75h0l-89.48-21a7.77,7.77,0,0,0,.86-1.76,7.91,7.91,0,0,0,.41-3.17l61.93-31.15,29.28,53.12A7.93,7.93,0,0,0,1707.78,740.57Zm-25-57.76,140.55-70.7a7.69,7.69,0,0,0,1.06,1.35l-104.6,123a8.17,8.17,0,0,0-1.89-1,8,8,0,0,0-5.87.3Zm-.72-1.29-34-61.73a7.94,7.94,0,0,0,2.71-3.78,8.06,8.06,0,0,0,.39-1.84l15-.47,156.09-4.84a7.91,7.91,0,0,0,.48,1.93Zm-36.32-75.66-.34-.09,12.18-113.23,7.61-70.69a8,8,0,0,0,4.71-1.46L1762.21,529l-112.6,79.63A8,8,0,0,0,1645.77,605.86Zm-61-235.37,72.35-23,6.55,58.55a8,8,0,0,0-5.26,3.75l-73.6-34.94A7.89,7.89,0,0,0,1584.82,370.49Zm70.24-55.15a7.93,7.93,0,0,0,7.12-6.54l96.3,2.62a7.78,7.78,0,0,0,.17,2.21l-100.21,31.88Zm103.82-6c-.07.2-.12.4-.17.6l-96.41-2.62a8,8,0,0,0-3.37-6.47l29.24-50.69,71.61,57.36A7.92,7.92,0,0,0,1758.88,309.34ZM1687,249.23l-29.36,50.88c-.25-.11-.5-.21-.77-.3a7.86,7.86,0,0,0-4.09-.28l-28.08-96.07a7.73,7.73,0,0,0,2.81-1.88Zm-38.45,63.71a8,8,0,0,0,3.18,2,7.44,7.44,0,0,0,1.84.38L1657,346l-72.72,23.14a7.6,7.6,0,0,0-.78-1.24Zm-64.22,63.28,73.5,34.88a1.34,1.34,0,0,0-.07.18,8,8,0,0,0,5,10.15,7.18,7.18,0,0,0,1,.25L1644,605.48a8,8,0,0,0-1.62,0l-62-225.43A8,8,0,0,0,1584.34,376.22Zm62.47,244.36,34,61.6L1619.3,713.1a8,8,0,0,0-4.79-5.32l27.63-86.41A8,8,0,0,0,1646.81,620.58ZM1604.56,889.3a7.8,7.8,0,0,0,2.7,1.57,8,8,0,0,0,3.7.33l11.74,49.42-103.59,32.61a8.08,8.08,0,0,0-1.09-2.05Zm7.83,1.56a8,8,0,0,0,5-5,8.1,8.1,0,0,0,.27-1.05L1752.1,898.1a8.4,8.4,0,0,0,.18,1.73l-128.17,40.35Zm139.86,5.77-28.44-2.82-106-10.47a8,8,0,0,0-2.62-6l60-79.88,79.19,95a8.07,8.07,0,0,0-1.91,3.07A7.84,7.84,0,0,0,1752.25,896.63Zm-76.1-100.36L1711,749.86a8.13,8.13,0,0,0,1.75.86,8,8,0,0,0,4,.3l40.44,139.68a7.72,7.72,0,0,0-1.6.86Zm42-45.64a7.79,7.79,0,0,0,2.19-1.24L1780,811.51l-18.79,78.72a8.05,8.05,0,0,0-2.64.06Zm3.26-2.26a8,8,0,0,0-.45-10.93l104.58-123a9.16,9.16,0,0,0,1.33.76L1780.42,809.8ZM1822.56,605.3a8,8,0,0,0-.4,2.08l-171,5.31a8,8,0,0,0-.78-2.76l112.79-79.76,61.25,72.12A8,8,0,0,0,1822.56,605.3Zm-151.5-185.86a8.09,8.09,0,0,0,1.59-2.33l161.28,54.76a8,8,0,0,0,.85,5.85l-71.36,50.46Zm163.34,51-161.28-54.76a8,8,0,0,0-.16-4.29l115.77-49.1,48.93,104.51A8,8,0,0,0,1834.4,470.47ZM1770.09,319a8,8,0,0,0,3.94-4.55,7.33,7.33,0,0,0,.36-1.56l112.75,3.93a7.63,7.63,0,0,0,.37,2l-98,41.58Zm117.1-3.66-44.47-1.57-68.28-2.41a8.29,8.29,0,0,0-.2-1.31l89.09-29.86,26.07,30.59a7.86,7.86,0,0,0-1.85,3A7.11,7.11,0,0,0,1887.19,315.38Zm-22.35-35.66,129-43.24a7.27,7.27,0,0,0,.58,1.06l-64.5,50.61-29,22.75a8,8,0,0,0-10.41-1ZM1902.7,319a8,8,0,0,0-.86-6.9l93.52-73.37a9.24,9.24,0,0,0,.73.66l-73.62,111.13L1894,324.32A8,8,0,0,0,1902.7,319ZM1835.18,85.72a8,8,0,0,0,.06-4.92l119-49L1840.61,93.42l-6.5-5.62A8.18,8.18,0,0,0,1835.18,85.72Zm-10.15,5a8,8,0,0,0,8.11-1.81l6.08,5.26-83.06,45,65.58-50.59A8.06,8.06,0,0,0,1825,90.73Zm-75.76-79.55a8.12,8.12,0,0,0,4.37-1.79l67.42,68.17a8.06,8.06,0,0,0-1.45,2.56,8.39,8.39,0,0,0-.39,1.88l-70.22.36ZM1749.2,84l70.23-.36a8.17,8.17,0,0,0,1.2,3.5l-66.54,51.33a7.94,7.94,0,0,0-3.29-2.12,7.14,7.14,0,0,0-1.8-.38Zm15.67,220.08a8,8,0,0,0-4.16,2.28l-71.79-57.5,56.18-97.38a6.51,6.51,0,0,0,.77.31,8.08,8.08,0,0,0,2.69.42ZM1743.24,9.62a8,8,0,0,0,3,1.8,8.14,8.14,0,0,0,1.8.38l-.27,71.2-83.27.43A8.05,8.05,0,0,0,1663,79.3ZM1662.72,89l68,44.47-75.12-41.8A8,8,0,0,0,1662.72,89Zm-13.65-7.69a8,8,0,0,0,1.47,7.54l-85.68-47.67ZM1550.59,35l190.53,106c-.09.21-.18.43-.26.65a8,8,0,0,0-.07,4.9l-111.93,45.79a8,8,0,0,0-4.52-3.88,7.9,7.9,0,0,0-5.28.06l-70.94-151A7.94,7.94,0,0,0,1550.59,35Zm-12.06,1.73a7.8,7.8,0,0,0,2.73,1.58,8,8,0,0,0,5.55-.15l70.91,151a7,7,0,0,0-1.36,1L1493.66,79.22Zm-84.34,3.55a8.21,8.21,0,0,0,.42-2.42l81.31-6a8,8,0,0,0,1.6,3.8l-45,42.61L1453,42.47A7.87,7.87,0,0,0,1454.19,40.25ZM1452,43.57l39.47,35.68-72.65,68.84a8,8,0,0,0-2.43-1.35l28.74-101.2A8,8,0,0,0,1452,43.57ZM1249.18-122.35c.1-.3.18-.61.25-.92l181.67,21a8,8,0,0,0,3.6,6.86L1353.94,56,1246.41-118.52A8,8,0,0,0,1249.18-122.35Zm57.22,266.5a8,8,0,0,0-4-.29l-58.31-261.17a7.31,7.31,0,0,0,1.09-.44l108,175.25-46.32,86.81Zm99.86,7.59a8.24,8.24,0,0,0-.35,1.51l-94.09-1.68a8,8,0,0,0-3.69-6.58L1354,59,1408.91,148A8,8,0,0,0,1406.26,151.74Zm7.32-5.41a7.8,7.8,0,0,0-3.42.89l-55.32-89.78L1436-94.68c.18.08.35.15.53.21a7.57,7.57,0,0,0,1,.27Zm25.3-238.72,6.56,122.16a8,8,0,0,0-1.71,15.36l-28.62,100.8Zm25,474.31a8.2,8.2,0,0,0-2-1,8,8,0,0,0-3.38-.38l-42.65-218.46a8,8,0,0,0,4.31-2.85l150.73,95.95Zm2.49,2.82a8,8,0,0,0-1.37-1.87L1572.15,256l75,47.77a7.76,7.76,0,0,0-.52,6Zm103.2-14.59a7.87,7.87,0,0,0-.41,2.9l-102.07,13.64c0-.2-.09-.39-.15-.59l180.3-75c.12.23.26.45.4.67l-65.14,55a8,8,0,0,0-12.93,3.37Zm5.72,10.36a8,8,0,0,0,3.63,0l62,225.26a8,8,0,0,0-5.28,5.09,7.83,7.83,0,0,0-.37,3.44l-121,24.75a8,8,0,0,0-4.93-5.2ZM1499.93,645.8a8,8,0,0,0,12.75.76l11.58,8.15L1405,696.88Zm25.81,10,78.9,55.49a8.1,8.1,0,0,0-.64,1.4,7.55,7.55,0,0,0-.31,1.31l-199.54-13.38a7.93,7.93,0,0,0-.24-1.75Zm-122,47.6a7.7,7.7,0,0,0,.32-1.3l199.54,13.37a8,8,0,0,0,1.94,5L1522,807.28l-119.3-101.89A7.55,7.55,0,0,0,1403.73,703.35Zm62.47,158.09a8,8,0,0,0-4.85-.08l-61.54-153.47a7.87,7.87,0,0,0,1.92-1.38L1521,808.35l-52.35,54.42A8.06,8.06,0,0,0,1466.2,861.44Zm48,106.9a8,8,0,0,0-5.16,0L1467.55,876a7.94,7.94,0,0,0,3.65-4.39,8.24,8.24,0,0,0,.27-1.06l130.37,12.72a8,8,0,0,0,1.7,5L1517,970.08A7.82,7.82,0,0,0,1514.15,968.34Zm134.53,111.8-40,26.3-92.15-124.28a10.41,10.41,0,0,0,.78-.71l131.41,91a8.28,8.28,0,0,0-.61,1.35A7.93,7.93,0,0,0,1648.68,1080.14Zm.93-8.89-131.34-91a8,8,0,0,0,1.21-5.63l103.57-32.6,30.12,126.75A8,8,0,0,0,1649.61,1071.25Zm9.51-2.11a8.26,8.26,0,0,0-.82-.33,7.94,7.94,0,0,0-3.69-.34l-30.15-126.85,128.27-40.38a8,8,0,0,0,2.7,3.41Zm3.19,2.71a8,8,0,0,0-1.92-2l96.32-164.49a6.68,6.68,0,0,0,.82.33,8,8,0,0,0,10-4.72l127.24,35.66a7.93,7.93,0,0,0,.55,4.68Zm232.88-136.61L1768,899.58a8,8,0,0,0-5.29-9h0l18.56-77.8,115.38,120.09A8.13,8.13,0,0,0,1895.19,935.24Zm4.94-4.73a8.27,8.27,0,0,0-2.46,1.33l-116-120.77,45.92-192.4Zm-70-330.63a8,8,0,0,0-4.54,1.45l-61.17-72,71.25-50.38a8.06,8.06,0,0,0,3.5,2.37,8.2,8.2,0,0,0,1.16.29ZM1839,466.2l-48.91-104.45,98-41.56a8,8,0,0,0,3.78,3.52L1843.57,466A8,8,0,0,0,1839,466.2Zm6,.22,47.91-141.13,28.76,26.45-76.15,114.94C1845.32,466.59,1845.15,466.5,1845,466.42Zm3.8,3.57a8,8,0,0,0-2-2.49l76-114.75,64.7,59.51Zm139.39-59.08-64.59-59.41,73.75-111.32a8.69,8.69,0,0,0,1.21.53,7.56,7.56,0,0,0,1.29.31Zm1.59-1.58,11.54-168.2a8,8,0,0,0,4.65-14.37l106.17-39.25a8,8,0,0,0,2.62,3.1Z"/><circle cx="1503.5" cy="1176.5" r="7.5"/><circle cx="1674.5" cy="1196.5" r="9.5"/><circle cx="1711.5" cy="1191.5" r="7.5"/><path d="M1666,1221.67s0,0,0,.06l-155.18,17a9.15,9.15,0,0,0,0-1.48L1662,1220.68l3.56-.3A9.63,9.63,0,0,0,1666,1221.67Z"/><path d="M1705.19,1224.14l-22.66-2.42a9,9,0,0,0,.19-1.46l22.51,2.4C1705.2,1223.16,1705.18,1223.65,1705.19,1224.14Z"/><path d="M2121.89,2239.6a8,8,0,0,1-10.3-9.65l-107.31-39.67-.6.24a8,8,0,0,1-3.15.41l-31.68,191.54a8,8,0,1,1-9.67,5.4l-124.5-51.23a8,8,0,0,1-12.15,2.47l-67.43,68.17a7.85,7.85,0,0,1,1.45,2.56,8,8,0,1,1-14.07-2.08l-80.27-69.69a8,8,0,0,1-12.56-2l-98.21,46.81a8,8,0,0,1-15.18,5.05,8.14,8.14,0,0,1-.42-2.2l-81.34-6a8,8,0,0,1-5.32,6.26,8.16,8.16,0,0,1-2.26.41l-6.66,123.82a8.08,8.08,0,1,1-9,9.56l-181.68,21a8,8,0,1,1-10.57-7.39,7.91,7.91,0,0,1,3.59-.35L1301,2271.81a8,8,0,1,1,10.46-10,8.22,8.22,0,0,1,.3,1.26l94.14-1.69a8,8,0,0,1,5.41-7.16,7.89,7.89,0,0,1,3.13-.41l42.66-218.5a8,8,0,1,1,9.83-10.25,7.87,7.87,0,0,1,.41,2.9l102.07,13.64a8,8,0,0,1,5.21-5.79l-.71.18-66-253.37a8,8,0,0,1-8.65-11l-96.41-51.86a8,8,0,1,1-4.38-12.08L1460,1554.17a8,8,0,0,1,6.24-14.68l41.44-92.37a8,8,0,0,1,1.36-14.53,7.8,7.8,0,0,1,1.33-.32l-8.14-185.18c.49,0,1,.06,1.48.07l8.13,185a8.06,8.06,0,0,1,3.52.94l92.15-124.28-98.14-64.58a.53.53,0,0,0,0-.12,0,0,0,0,0,0,0,3.31,3.31,0,0,0,.6-1.2l98.38,64.74,60.27-81.28a10.79,10.79,0,0,0,1.28.76l-60.31,81.33,39.89,26.25a8,8,0,0,1,6.73-3l16-103.76a14.66,14.66,0,0,0,1.45.25l-16,103.74a7.84,7.84,0,0,1,.94.29l50.22-100.87a3.84,3.84,0,0,0,.51.19l.88.33-50.29,101a8,8,0,0,1,3.09,10l233,130.51a8,8,0,1,1,5.5,12.45l-73.19,314.5a8,8,0,1,1,3.18,15.67l10.2,118.29a8,8,0,0,1,7.58,10.37L1988,2002.44l-.14-2,1.48,2.58.83.35-.42.38,126.29,221c.24-.11.49-.21.74-.3a8,8,0,0,1,5.14,15.16Zm-161.71,146.17a7.94,7.94,0,0,1,7.22-3.54l31.67-191.55a8,8,0,0,1-3.51-2l-153.75,132.91Zm-436.64-777.94,83.47,86.79a7.81,7.81,0,0,1,2.42-1.33,4,4,0,0,1,.57-.16l-.46-152.37a8,8,0,0,1-4.86-2.24Zm79.76-70.43a7.84,7.84,0,0,1-1-2,6.87,6.87,0,0,1-.27-1.06L1471.62,1547a8,8,0,0,1-1.95,5.26l52.42,54.49Zm-88.76,238.17,118.34,24.2L1526,1762l-12.44,8.74a8.2,8.2,0,0,1,.64,1.41A8,8,0,0,1,1514.54,1775.57Zm121.4,23.72a8,8,0,0,1,4.68-4.23l.08,0-27.61-86.33a8,8,0,0,1-7.6-2.66l-78,54.88Zm-216,467.67,72.68,68.88,122.78-111a8,8,0,0,1-1.18-2.22,2.29,2.29,0,0,1-.07-.28l-192.32,38.71A8,8,0,0,1,1419.91,2267Zm1.5-7.77c0,.13.08.27.12.41l192.29-38.7a8,8,0,0,1,2.25-6.46l-44.22-52.38L1421,2258.12A8.61,8.61,0,0,1,1421.41,2259.19Zm195.79-45.7a7.9,7.9,0,0,1,6.1-1.29l28.07-96.07a8,8,0,0,1-3.38-2.53l-74.88,47.66Zm12.22,8.89,111.93,45.79a8,8,0,0,1,2.47-2.83l-56.07-97.19-59.3,47.5a8.65,8.65,0,0,1,.9,1.83A8,8,0,0,1,1629.42,2222.38ZM1663.66,2328a7.44,7.44,0,0,1,.67,1.49,7.24,7.24,0,0,1,.37,1.63l83.3.43-.2-52a8.07,8.07,0,0,1-5.55-3Zm92.13-52.95,84.63,45.86,154.17-133.27a8.22,8.22,0,0,1-.67-1.15l-.51-.19-237.22,83.65A8,8,0,0,1,1755.79,2275Zm237.51-90.27a8,8,0,0,1,0-3.75l-129.54-43.42-109.65,128.72a7.68,7.68,0,0,1,1.55,2.23Zm-131-47.68-88.53-29.67a8,8,0,0,1-4.74,4.35,8.12,8.12,0,0,1-2.69.42L1750,2264a7.9,7.9,0,0,1,3,1.3Zm-93.58-40.57,19.38-41.4L1672.38,2006a7.91,7.91,0,0,1-.91,1.34l89.91,90.63a7.84,7.84,0,0,1,2.5-1.4A7.94,7.94,0,0,1,1768.72,2096.49Zm-98.31-88.07a7.84,7.84,0,0,1-5.22,1.8l-6.58,58.85,100.49,32a7.84,7.84,0,0,1,1-1.69Zm-55.68-314.9a8,8,0,0,1,2.54,1.73l69.69-16.38,20.48-4.81a8,8,0,0,1,2.42-6.93L1675.18,1621Zm59.94-73.76-60.24-80.16a8,8,0,0,1-1.62.77,8.35,8.35,0,0,1-1.81.38l.46,152.14a7.74,7.74,0,0,1,2.15.15Zm33.11,55.75h0l-89.48,21a7.57,7.57,0,0,1,.86,1.76,7.91,7.91,0,0,1,.41,3.17l61.93,31.14,29.28-53.11A7.93,7.93,0,0,1,1707.78,1675.51Zm-25,57.76L1823.36,1804a8,8,0,0,1,1.06-1.34l-104.6-123a8.17,8.17,0,0,1-1.89,1,8,8,0,0,1-5.87-.3Zm-.72,1.29-34,61.73a8,8,0,0,1,3.1,5.62l15,.46,156.09,4.85a7.8,7.8,0,0,1,.48-1.93Zm-36.32,75.66-.34.09,12.18,113.23,7.61,70.69a8,8,0,0,1,4.71,1.46L1762.21,1887l-112.6-79.63A8,8,0,0,1,1645.77,1810.22Zm-61,235.37,72.35,23,6.55-58.55a8,8,0,0,1-5.26-3.75l-73.6,34.94A7.89,7.89,0,0,1,1584.82,2045.59Zm70.24,55.15a8,8,0,0,1,6.83,5.38,8.55,8.55,0,0,1,.29,1.16l96.3-2.62a7.78,7.78,0,0,1,.17-2.21l-100.21-31.88Zm103.82,6a6.09,6.09,0,0,1-.17-.61l-96.41,2.63a8,8,0,0,1-3.37,6.47l29.24,50.69,71.61-57.36A8.12,8.12,0,0,1,1758.88,2106.74ZM1687,2166.85,1657.65,2116c-.25.11-.5.21-.77.3a8,8,0,0,1-4.09.28l-28.08,96.06a7.88,7.88,0,0,1,2.81,1.89Zm-38.45-63.71a7.92,7.92,0,0,1,3.18-2,7.44,7.44,0,0,1,1.84-.38l3.42-30.63L1584.28,2047a8.05,8.05,0,0,1-.78,1.24Zm-64.22-63.28,73.5-34.88a1.34,1.34,0,0,1-.07-.18,8,8,0,0,1,5-10.15,9,9,0,0,1,1-.26L1644,1810.6a8,8,0,0,1-1.62,0l-62,225.43A8,8,0,0,1,1584.34,2039.86Zm62.47-244.36,34-61.6L1619.3,1703a8,8,0,0,1-4.79,5.32l27.63,86.41A8,8,0,0,1,1646.81,1795.5Zm-42.25-268.72a7.8,7.8,0,0,1,2.7-1.57,8.1,8.1,0,0,1,3.7-.34l11.74-49.41-103.59-32.61a8.08,8.08,0,0,1-1.09,2.05Zm7.83-1.56a8,8,0,0,1,5,5,8.1,8.1,0,0,1,.27,1L1752.1,1518a8.26,8.26,0,0,1,.18-1.73l-128.17-40.35Zm139.86-5.77-28.44,2.81-106,10.48a8,8,0,0,1-2.62,6l60,79.89,79.19-95a8.15,8.15,0,0,1-1.91-3.07A8.24,8.24,0,0,1,1752.25,1519.45Zm-76.1,100.36,34.88,46.41a8.13,8.13,0,0,1,1.75-.86,8,8,0,0,1,4-.3l40.44-139.68a8.23,8.23,0,0,1-1.6-.86Zm42,45.63a8.07,8.07,0,0,1,2.19,1.25l59.68-62.12-18.79-78.72a8.05,8.05,0,0,1-2.64-.06Zm3.26,2.27a8,8,0,0,1-.45,10.93l104.58,123a8.32,8.32,0,0,1,1.33-.76l-46.45-194.62Zm101.15,143.07a8,8,0,0,1-.4-2.08l-171-5.31a8,8,0,0,1-.78,2.76l112.79,79.76,61.25-72.12A8,8,0,0,1,1822.56,1810.78Zm-151.5,185.86a8,8,0,0,1,1.59,2.33l161.28-54.76a8,8,0,0,1,.85-5.85l-71.36-50.46Zm163.34-51-161.28,54.76a8,8,0,0,1-.16,4.29l115.77,49.1,48.93-104.51A8,8,0,0,1,1834.4,1945.61ZM1770.09,2097a8,8,0,0,1,3.94,4.55,7.33,7.33,0,0,1,.36,1.56l112.75-3.93a7.63,7.63,0,0,1,.37-2l-98-41.58Zm117.1,3.66-44.47,1.57-68.28,2.4a8.24,8.24,0,0,1-.2,1.32l89.09,29.86,26.07-30.59a7.86,7.86,0,0,1-1.85-3A7.11,7.11,0,0,1,1887.19,2100.7Zm-22.35,35.66,129,43.23a7.17,7.17,0,0,1,.58-1.05l-64.5-50.61-29-22.75a8,8,0,0,1-10.41,1Zm37.86-39.25a8,8,0,0,1-.86,6.9l93.52,73.37a9.24,9.24,0,0,1,.73-.66l-73.62-111.13L1894,2091.76A8,8,0,0,1,1902.7,2097.11Zm-67.52,233.25a7.93,7.93,0,0,1,.06,4.91l119,49-113.65-61.58-6.5,5.62A8.18,8.18,0,0,1,1835.18,2330.36Zm-10.15-5a8,8,0,0,1,8.11,1.81l6.08-5.26-83.06-45,65.58,50.59A8,8,0,0,1,1825,2325.35Zm-75.76,79.55a8.12,8.12,0,0,1,4.37,1.79l67.42-68.17a8,8,0,0,1-1.45-2.57,8.31,8.31,0,0,1-.39-1.87l-70.22-.36Zm-.07-72.82,70.23.36a8.17,8.17,0,0,1,1.2-3.5l-66.54-51.33a7.94,7.94,0,0,1-3.29,2.12,7.14,7.14,0,0,1-1.8.38ZM1764.87,2112a8,8,0,0,1-4.16-2.28l-71.79,57.49,56.18,97.39a6.51,6.51,0,0,1,.77-.31,8.08,8.08,0,0,1,2.69-.42Zm-21.63,294.46a8,8,0,0,1,3-1.8,8.14,8.14,0,0,1,1.8-.38l-.27-71.2-83.27-.43a8.05,8.05,0,0,1-1.49,4.13ZM1662.72,2327l68-44.47-75.12,41.8A8,8,0,0,1,1662.72,2327Zm-13.65,7.68a8,8,0,0,1,1.47-7.54l-85.68,47.68Zm-98.48,46.39,190.53-106c-.09-.21-.18-.43-.26-.65a8,8,0,0,1-.07-4.9l-111.93-45.79a8,8,0,0,1-9.8,3.82l-70.94,151A7.94,7.94,0,0,1,1550.59,2381.11Zm-12.06-1.73a8,8,0,0,1,8.28-1.43l70.91-151a7,7,0,0,1-1.36-1l-122.7,110.92Zm-84.34-3.55a8.21,8.21,0,0,1,.42,2.42l81.31,6a8,8,0,0,1,1.6-3.8l-45-42.61L1453,2373.61A7.74,7.74,0,0,1,1454.19,2375.83Zm-2.17-3.32,39.47-35.68L1418.84,2268a8,8,0,0,1-2.43,1.35l28.74,101.2A8,8,0,0,1,1452,2372.51Zm-202.84,165.91c.1.31.18.62.25.93l181.67-21a8,8,0,0,1,3.6-6.86l-80.76-151.36L1246.41,2534.6A8,8,0,0,1,1249.18,2538.42Zm57.22-266.49a8,8,0,0,1-4,.29l-58.31,261.17a7.31,7.31,0,0,1,1.09.44l108-175.25-46.32-86.81Zm99.86-7.6a8,8,0,0,1-.35-1.5l-94.09,1.68a8,8,0,0,1-3.69,6.58l45.91,86,54.87-89.06A8,8,0,0,1,1406.26,2264.33Zm7.32,5.42a7.93,7.93,0,0,1-3.42-.89l-55.32,89.78L1436,2510.75l.53-.2a7.57,7.57,0,0,1,1-.27Zm25.3,238.72,6.56-122.16a8,8,0,0,1-1.71-15.36l-28.62-100.8Zm25-474.31a8.2,8.2,0,0,1-2,1,8,8,0,0,1-3.38.38L1415.85,2254a8,8,0,0,1,4.31,2.85l150.73-95.95Zm2.49-2.82a8,8,0,0,1-1.37,1.87l107.15,126.91,75-47.77a7.76,7.76,0,0,1-.52-6Zm103.2,14.58a7.82,7.82,0,0,1-.41-2.89l-102.07-13.64c0,.2-.09.39-.15.59l180.3,75c.12-.23.26-.45.4-.67l-65.14-55a8,8,0,0,1-12.93-3.38Zm5.72-10.35a8,8,0,0,1,3.63,0l62-225.26a8,8,0,0,1-5.28-5.09,7.84,7.84,0,0,1-.37-3.44l-121-24.75a8,8,0,0,1-4.93,5.2Zm-75.36-265.29a8,8,0,0,1,12.75-.77l11.58-8.14L1405,1719.2Zm25.81-10,78.9-55.49a8.46,8.46,0,0,1-.64-1.4,7.55,7.55,0,0,1-.31-1.31l-199.54,13.38a7.93,7.93,0,0,1-.24,1.75Zm-122-47.6a7.7,7.7,0,0,1,.32,1.3l199.54-13.37a8,8,0,0,1,1.94-5L1522,1608.8l-119.3,101.89A7.55,7.55,0,0,1,1403.73,1712.73Zm62.47-158.1a7.89,7.89,0,0,1-4.85.09l-61.54,153.47a7.87,7.87,0,0,1,1.92,1.38L1521,1607.73l-52.35-54.42A7.82,7.82,0,0,1,1466.2,1554.63Zm48-106.89a8,8,0,0,1-5.16,0l-41.44,92.37a7.94,7.94,0,0,1,3.65,4.39,7.84,7.84,0,0,1,.27,1.06l130.37-12.72a8,8,0,0,1,1.7-5L1517,1446A7.82,7.82,0,0,1,1514.15,1447.74Zm134.53-111.81-40-26.29-92.15,124.28a10.41,10.41,0,0,1,.78.71l131.41-91a9.13,9.13,0,0,1-.61-1.35A8,8,0,0,1,1648.68,1335.93Zm.93,8.9-131.34,91a8,8,0,0,1,1.21,5.63l103.57,32.6,30.12-126.75A8,8,0,0,1,1649.61,1344.83Zm9.51,2.11c-.27.12-.54.23-.82.33a7.94,7.94,0,0,1-3.69.34l-30.15,126.85,128.27,40.38a8,8,0,0,1,2.7-3.41Zm3.19-2.71a7.77,7.77,0,0,1-1.92,2l96.32,164.5a5.4,5.4,0,0,1,.82-.33,8,8,0,0,1,10,4.72l127.24-35.66a7.93,7.93,0,0,1,.55-4.68Zm232.88,136.61L1768,1516.5a8,8,0,0,1-5.29,9h0l18.56,77.79,115.38-120.09A8,8,0,0,1,1895.19,1480.84Zm4.94,4.73a8.27,8.27,0,0,1-2.46-1.33l-116,120.77,45.92,192.4Zm-70,330.63a8,8,0,0,1-4.54-1.45l-61.17,72,71.25,50.38a8.07,8.07,0,0,1,3.5-2.38,9.77,9.77,0,0,1,1.16-.28Zm8.91,133.68-48.91,104.45,98,41.56a8,8,0,0,1,3.78-3.52l-48.29-142.24A8,8,0,0,1,1839,1949.88Zm6-.22,47.91,141.13,28.76-26.45-76.15-114.94Zm3.8-3.57a8,8,0,0,1-2,2.49l76,114.75,64.7-59.51Zm139.39,59.08-64.59,59.41,73.75,111.32a8.69,8.69,0,0,1,1.21-.53,7.56,7.56,0,0,1,1.29-.31Zm1.59,1.58,11.54,168.2a8,8,0,0,1,4.65,14.37l106.17,39.25a7.92,7.92,0,0,1,2.62-3.1Z"/><circle cx="1503.5" cy="1239.58" r="7.5"/><circle cx="1674.5" cy="1219.58" r="9.5"/><circle cx="1711.5" cy="1224.58" r="7.5"/></g><g id="geometria_esquerda" data-name="geometria esquerda"><path d="M265,1195.41a.13.13,0,0,0,0-.06l155.18-17a9.16,9.16,0,0,0,.05,1.48L269,1196.4l-3.57.3A9.63,9.63,0,0,0,265,1195.41Z"/><path d="M225.84,1192.94l22.65,2.42a10.22,10.22,0,0,0-.18,1.46l-22.51-2.4C225.82,1193.92,225.84,1193.43,225.84,1192.94Z"/><path d="M-190.87,177.48a8,8,0,0,1,10.15,5,7.92,7.92,0,0,1,.15,4.64L-73.26,226.8a6.44,6.44,0,0,1,.61-.24,7.94,7.94,0,0,1,3.14-.41L-37.83,34.61a8,8,0,0,1-5.55-5.17,8,8,0,0,1,5-10.15,8,8,0,0,1,10.14,5,7.86,7.86,0,0,1,.07,4.91L96.34,80.44A8,8,0,0,1,108.5,78L175.92,9.8a8.06,8.06,0,0,1-1.45-2.56,8,8,0,1,1,14.07,2.08L268.81,79a8,8,0,0,1,12.56,2l98.22-46.8a8,8,0,0,1,15.18-5.06,8.68,8.68,0,0,1,.41,2.21l81.34,6a8,8,0,0,1,5.32-6.25,8.16,8.16,0,0,1,2.26-.41l6.66-123.82a8,8,0,0,1-6.41-5.34,8,8,0,0,1,5-10.15,8,8,0,0,1,10.15,5c.1.31.18.62.25.93l181.67-21a8,8,0,0,1,5.43-7.76,8,8,0,0,1,10.15,5,8,8,0,0,1-5,10.15,8,8,0,0,1-3.58.35L630.07,145.26a8,8,0,1,1-10.45,10,7.24,7.24,0,0,1-.31-1.26l-94.14,1.68a8,8,0,0,1-5.41,7.17,7.89,7.89,0,0,1-3.13.41L474,381.8a8,8,0,1,1-9.83,10.25,8.09,8.09,0,0,1-.41-2.9L361.67,375.51a8,8,0,0,1-5.22,5.79l.71-.18,66,253.37a8,8,0,0,1,8.65,11l96.42,51.86a7.91,7.91,0,0,1,4.08-3.16,8,8,0,0,1,5.15,15.15,7.89,7.89,0,0,1-4.85.09L471.05,862.91a8,8,0,0,1-6.23,14.68L423.38,970A8,8,0,0,1,422,984.49a7.91,7.91,0,0,1-1.34.32L428.82,1170c-.49,0-1-.07-1.48-.07l-8.13-185a8,8,0,0,1-3.52-.93l-92.15,124.28,98.14,64.58a.42.42,0,0,0,0,.12v0a3.18,3.18,0,0,0-.61,1.2l-98.38-64.74-60.27,81.28a9.48,9.48,0,0,0-1.27-.76l60.3-81.33-39.88-26.25a8,8,0,0,1-6.73,3l-16,103.76a11.88,11.88,0,0,0-1.45-.25l16-103.74c-.32-.08-.64-.18-1-.29l-50.22,100.87a3.25,3.25,0,0,0-.5-.19c-.3-.1-.59-.22-.89-.33l50.29-101a8,8,0,0,1-3.09-10L35,943.63a7.9,7.9,0,0,1-4,3,8,8,0,1,1-1.49-15.49l73.19-314.5A8,8,0,1,1,99.46,601L89.26,482.72a8,8,0,0,1-7.58-10.37L-56.95,414.64l.14,2-1.48-2.58-.83-.35.42-.38L-185,192.34a6,6,0,0,1-.74.29,8,8,0,0,1-10.14-5A8,8,0,0,1-190.87,177.48ZM-29.16,31.31a7.88,7.88,0,0,1-4.07,3.13,7.94,7.94,0,0,1-3.14.41L-68,226.4a8,8,0,0,1,3.51,2L89.22,95.46ZM407.49,809.24,324,722.46a7.9,7.9,0,0,1-2.42,1.33c-.19.07-.38.11-.57.16l.46,152.37a8,8,0,0,1,4.86,2.24Zm-79.77,70.44a7.55,7.55,0,0,1,1,2,7.88,7.88,0,0,1,.28,1.06L459.4,870.06a8,8,0,0,1,2-5.26l-52.41-54.49Zm88.77-238.17L298.15,617.3l106.91,37.8,12.43-8.74a7.47,7.47,0,0,1-.63-1.41A7.83,7.83,0,0,1,416.49,641.51Zm-121.4-23.72A8,8,0,0,1,290.4,622l-.08,0,27.61,86.33a8,8,0,0,1,7.6,2.66l78.05-54.88Zm216-467.67L438.44,81.24l-122.78,111a8,8,0,0,1,1.17,2.22c0,.09.05.18.08.27L509.23,156A8,8,0,0,1,511.12,150.12Zm-1.51,7.77c0-.14-.08-.27-.11-.41l-192.3,38.7a8,8,0,0,1-2.25,6.46L359.17,255,510.07,159A9.31,9.31,0,0,1,509.61,157.89Zm-195.79,45.7a7.89,7.89,0,0,1-6.09,1.29L279.66,301a8,8,0,0,1,3.37,2.53l74.89-47.66ZM301.6,194.7,189.67,148.91a8,8,0,0,1-2.47,2.83l56.07,97.19,59.31-47.5a8.23,8.23,0,0,1-.91-1.83A8,8,0,0,1,301.6,194.7ZM267.37,89.12a8.08,8.08,0,0,1-.68-1.49,8.53,8.53,0,0,1-.37-1.63L183,85.57l.2,52a8,8,0,0,1,5.55,3Zm-92.13,52.95L90.6,96.21-63.57,229.48a8.7,8.7,0,0,1,.68,1.15l.5.19,237.22-83.66A8,8,0,0,1,175.24,142.07ZM-62.28,232.34a7.91,7.91,0,0,1,0,3.75L67.21,279.51,176.86,150.79a8,8,0,0,1-1.54-2.23ZM68.72,280l88.53,29.68a8,8,0,0,1,4.74-4.35,8.16,8.16,0,0,1,2.69-.42L181,153.05a8,8,0,0,1-3-1.3Zm93.58,40.57L142.92,362l115.72,49.07a8.55,8.55,0,0,1,.91-1.34l-89.9-90.63a8,8,0,0,1-7.35,1.49Zm98.32,88.08a7.83,7.83,0,0,1,5.21-1.8L272.42,348,171.93,316a8.32,8.32,0,0,1-1,1.69Zm55.68,314.9a8,8,0,0,1-2.55-1.73l-69.69,16.38L223.59,743a8,8,0,0,1-2.43,6.93l34.68,46.15Zm-59.95,73.76,60.24,80.16a8,8,0,0,1,1.62-.77,8.35,8.35,0,0,1,1.81-.38l-.45-152.14a7.72,7.72,0,0,1-2.15-.15Zm-33.11-55.75h0l89.48-21a8.21,8.21,0,0,1-.86-1.76,8.09,8.09,0,0,1-.41-3.17l-61.92-31.15-29.29,53.12A7.93,7.93,0,0,1,223.24,741.57Zm25-57.76-140.55-70.7a8.25,8.25,0,0,1-1.07,1.35l104.6,123a8.37,8.37,0,0,1,1.89-1,8,8,0,0,1,5.88.3Zm.71-1.29,34-61.73a8,8,0,0,1-2.71-3.78,7.54,7.54,0,0,1-.38-1.84l-15-.47-156.08-4.84a8.41,8.41,0,0,1-.49,1.93Zm36.33-75.66.34-.09L273.41,493.54l-7.61-70.69a8,8,0,0,1-4.71-1.46L168.81,530l112.6,79.63A8,8,0,0,1,285.26,606.86ZM346.2,371.49l-72.35-23L267.3,407a8,8,0,0,1,5.26,3.75l73.61-34.94A7.9,7.9,0,0,1,346.2,371.49ZM276,316.34a8,8,0,0,1-6.82-5.39,8.07,8.07,0,0,1-.29-1.15l-96.31,2.62a7.78,7.78,0,0,1-.17,2.21l100.21,31.88Zm-103.82-6c.07.2.12.4.17.6l96.41-2.62a8,8,0,0,1,3.37-6.47l-29.24-50.69-71.61,57.36A7.53,7.53,0,0,1,172.14,310.34ZM244,250.23l29.35,50.88c.25-.11.51-.21.77-.3a7.89,7.89,0,0,1,4.1-.28l28.07-96.07a7.9,7.9,0,0,1-2.81-1.88Zm38.44,63.71a8,8,0,0,1-3.17,2,7.52,7.52,0,0,1-1.85.38L274,347l72.72,23.14a7.6,7.6,0,0,1,.78-1.24Zm64.22,63.28L273.19,412.1l.07.18a8,8,0,0,1-5,10.15,6.71,6.71,0,0,1-1,.25l19.78,183.8a8,8,0,0,1,1.62,0l62-225.43A8,8,0,0,1,346.68,377.22ZM284.22,621.58l-34,61.6,61.48,30.92a8,8,0,0,1,4.78-5.32l-27.63-86.41A8,8,0,0,1,284.22,621.58ZM326.47,890.3a7.91,7.91,0,0,1-6.4,1.9l-11.75,49.42,103.59,32.61a8.08,8.08,0,0,1,1.09-2.05Zm-7.84,1.56a8,8,0,0,1-5-5,8.1,8.1,0,0,1-.27-1.05L178.92,899.1a7.76,7.76,0,0,1-.18,1.73l128.17,40.35Zm-139.86,5.77,28.44-2.82,106-10.47a8.05,8.05,0,0,1,2.62-6l-60-79.88-79.19,95a7.72,7.72,0,0,1,2.18,4.13Zm76.1-100.36L220,750.86A7.81,7.81,0,0,1,214.3,752L173.85,891.7a7.48,7.48,0,0,1,1.6.86Zm-42-45.64a7.93,7.93,0,0,1-2.19-1.24L151,812.51l18.78,78.72a8,8,0,0,1,2.64.06Zm-3.25-2.26a7.88,7.88,0,0,1-1.53-2.66,8,8,0,0,1,2-8.27l-104.58-123a8.65,8.65,0,0,1-1.33.76L150.6,810.8ZM108.46,606.3a8,8,0,0,1,.4,2.08l171,5.31a8,8,0,0,1,.77-2.76L167.85,531.17,106.6,603.29A8,8,0,0,1,108.46,606.3ZM260,420.44a8.06,8.06,0,0,1-1.58-2.33L97.09,472.87a7.94,7.94,0,0,1-.85,5.85l71.36,50.46Zm-163.34,51L257.9,416.71a8,8,0,0,1,.16-4.29l-115.77-49.1L93.36,467.83A8,8,0,0,1,96.62,471.47ZM160.93,320a8,8,0,0,1-4.3-6.11L43.89,317.86a8.08,8.08,0,0,1-.37,2l98,41.58ZM43.84,316.38l44.47-1.57,68.27-2.41a8.29,8.29,0,0,1,.2-1.31L67.69,281.23,41.63,311.82a8.11,8.11,0,0,1,1.85,3A8.49,8.49,0,0,1,43.84,316.38Zm22.34-35.66-129-43.24a8.43,8.43,0,0,1-.59,1.06l64.5,50.61,29,22.75a8.12,8.12,0,0,1,3.24-2.08,8,8,0,0,1,7.17,1ZM28.32,320a8,8,0,0,1,.86-6.9L-64.34,239.7a7.76,7.76,0,0,1-.73.66L8.56,351.49,37,325.32A8,8,0,0,1,28.32,320ZM95.85,86.72a8,8,0,0,1-.07-4.92l-119-49L90.41,94.42l6.51-5.62A7.87,7.87,0,0,1,95.85,86.72Zm10.15,5a8,8,0,0,1-8.12-1.81L91.8,95.18l83.06,45L109.28,89.6A8,8,0,0,1,106,91.73Zm75.75-79.55a8.05,8.05,0,0,1-4.36-1.79L110,78.56a8.06,8.06,0,0,1,1.45,2.56A7.87,7.87,0,0,1,111.8,83l70.22.36ZM181.82,85l-70.23-.36a8,8,0,0,1-1.2,3.5l66.54,51.33a8,8,0,0,1,3.29-2.12A7.23,7.23,0,0,1,182,137ZM166.15,305.08a8.08,8.08,0,0,1,4.17,2.28l71.78-57.5-56.17-97.38a7.28,7.28,0,0,1-.77.31,8.16,8.16,0,0,1-2.69.42ZM187.78,10.62a8.06,8.06,0,0,1-2.95,1.8,8.35,8.35,0,0,1-1.81.38L183.3,84l83.26.43a8.05,8.05,0,0,1,1.49-4.13ZM268.3,90l-68,44.47,75.11-41.8A8,8,0,0,1,268.3,90ZM282,82.35a8,8,0,0,1-1.47,7.54l85.68-47.67ZM380.43,36,189.9,142c.1.21.18.43.26.65a8,8,0,0,1,.07,4.9l111.93,45.79a8,8,0,0,1,9.81-3.82l70.93-151A8,8,0,0,1,380.43,36Zm12.06,1.73a7.8,7.8,0,0,1-2.73,1.58,7.92,7.92,0,0,1-5.54-.15l-70.92,151a7.39,7.39,0,0,1,1.37,1L437.36,80.22Zm84.35,3.55a7.91,7.91,0,0,1-.43-2.42l-81.3-6a8,8,0,0,1-1.61,3.8l45,42.61L478,43.47A8.11,8.11,0,0,1,476.84,41.25ZM479,44.57,439.53,80.25l72.65,68.84a8,8,0,0,1,2.43-1.35L485.88,46.54A8,8,0,0,1,479,44.57ZM681.84-121.35a7.32,7.32,0,0,1-.24-.92l-181.68,21a8,8,0,0,1-3.6,6.86L577.08,57,684.61-117.52A8,8,0,0,1,681.84-121.35Zm-57.22,266.5a8,8,0,0,1,4-.29L687-116.31a7.31,7.31,0,0,1-1.09-.44L577.88,58.5l46.33,86.81Zm-99.86,7.59a8.27,8.27,0,0,1,.36,1.51l94.08-1.68a8,8,0,0,1,3.69-6.58L577,60,522.11,149A8,8,0,0,1,524.76,152.74Zm-7.32-5.41a7.76,7.76,0,0,1,3.42.89l55.32-89.78L495-93.68a4.71,4.71,0,0,1-.52.21,8.1,8.1,0,0,1-1.05.27ZM492.14-91.39,485.58,30.77a8,8,0,0,1,1.72,15.36l28.62,100.8Zm-25,474.31a7.89,7.89,0,0,1,5.37-1.4l42.66-218.46a8,8,0,0,1-4.32-2.85l-150.73,96Zm-2.5,2.82a8.33,8.33,0,0,1,1.37-1.87L358.88,257l-75.06,47.77a7.8,7.8,0,0,1,.53,6Zm-103.2-14.59a7.87,7.87,0,0,1,.41,2.9l102.07,13.64c0-.2.1-.39.16-.59l-180.31-75a6.58,6.58,0,0,1-.4.67l65.14,55a8,8,0,0,1,12.93,3.37Zm-5.71,10.36a8,8,0,0,1-3.64,0l-62,225.26a8,8,0,0,1,5.28,5.09,7.83,7.83,0,0,1,.37,3.44l121,24.75a8,8,0,0,1,4.93-5.2ZM431.09,646.8a8,8,0,0,1-12.75.76l-11.57,8.15,119.29,42.17Zm-25.81,10-78.89,55.49a8.07,8.07,0,0,1,.63,1.4,7.58,7.58,0,0,1,.32,1.31l199.53-13.38a8.58,8.58,0,0,1,.24-1.75Zm122,47.6a7.7,7.7,0,0,1-.32-1.3L327.44,716.42a8.06,8.06,0,0,1-1.94,5L409,808.28,528.33,706.39A7.84,7.84,0,0,1,527.29,704.35ZM464.83,862.44a8,8,0,0,1,4.85-.08l61.54-153.47a7.73,7.73,0,0,1-1.93-1.38L410.06,809.35l52.35,54.42A8.12,8.12,0,0,1,464.83,862.44Zm-48,106.9a8,8,0,0,1,5.16,0L463.47,877a7.94,7.94,0,0,1-3.65-4.39,8.24,8.24,0,0,1-.27-1.06L329.19,884.25a8.09,8.09,0,0,1-1.71,5L414,971.08A8,8,0,0,1,416.87,969.34Zm-134.52,111.8,39.95,26.3,92.15-124.28a8.63,8.63,0,0,1-.77-.71l-131.42,91a7.51,7.51,0,0,1,.61,1.35A8,8,0,0,1,282.35,1081.14Zm-.93-8.89,131.33-91a7.92,7.92,0,0,1-.88-1.8,8.12,8.12,0,0,1-.33-3.83L308,943.06l-30.13,126.75A8,8,0,0,1,281.42,1072.25Zm-9.51-2.11a7.22,7.22,0,0,1,.81-.33,8,8,0,0,1,3.7-.34l30.15-126.85L178.3,902.24a8,8,0,0,1-2.71,3.41Zm-3.2,2.71a8.16,8.16,0,0,1,1.92-2L174.31,906.39a7.22,7.22,0,0,1-.81.33,8,8,0,0,1-10-4.72L36.23,937.66a7.93,7.93,0,0,1-.56,4.68ZM35.83,936.24l127.23-35.66a8,8,0,0,1,5.29-9h0l-18.57-77.8L34.42,933.86A8.1,8.1,0,0,1,35.83,936.24Zm-4.94-4.73a8.27,8.27,0,0,1,2.46,1.33l116-120.77-45.92-192.4Zm70.05-330.63a8,8,0,0,1,4.53,1.45l61.17-72L95.39,479.93a7.85,7.85,0,0,1-4.65,2.66ZM92,467.2l48.91-104.45-98-41.56a8,8,0,0,1-3.78,3.52L87.45,467A8,8,0,0,1,92,467.2Zm-6,.23L38.14,326.29,9.38,352.74,85.54,467.68ZM82.25,471a8,8,0,0,1,2-2.49l-76-114.75-64.7,59.51ZM-57.14,411.91,7.45,352.5-66.3,241.18a7.77,7.77,0,0,1-1.21.53,7.56,7.56,0,0,1-1.29.31Zm-1.59-1.58-11.54-168.2a8,8,0,0,1-7.39-5.42,8,8,0,0,1,2.75-9l-106.18-39.25a8,8,0,0,1-2.62,3.1Z"/><circle cx="427.52" cy="1177.5" r="7.5"/><circle cx="256.52" cy="1197.5" r="9.5"/><circle cx="219.52" cy="1192.5" r="7.5"/><path d="M265,1222.67a.13.13,0,0,1,0,.06l155.18,17a9.16,9.16,0,0,1,.05-1.48L269,1221.68l-3.57-.3A9.63,9.63,0,0,1,265,1222.67Z"/><path d="M225.84,1225.14l22.65-2.42a10.22,10.22,0,0,1-.18-1.46l-22.51,2.4C225.82,1224.16,225.84,1224.65,225.84,1225.14Z"/><path d="M-190.87,2240.6a8,8,0,0,0,10.15-5,7.92,7.92,0,0,0,.15-4.64l107.31-39.67a6.44,6.44,0,0,0,.61.24,7.94,7.94,0,0,0,3.14.41l31.68,191.54a8,8,0,0,0-5.55,5.17,8,8,0,0,0,5,10.15,8,8,0,0,0,10.14-5,7.86,7.86,0,0,0,.07-4.91l124.5-51.23a8,8,0,0,0,12.16,2.47l67.42,68.17a7.85,7.85,0,0,0-1.45,2.56,8,8,0,1,0,14.07-2.08l80.27-69.69a8,8,0,0,0,12.56-2l98.22,46.81a8,8,0,0,0,15.18,5.05,8.53,8.53,0,0,0,.41-2.2l81.34-6a8,8,0,0,0,5.32,6.26,8.16,8.16,0,0,0,2.26.41l6.66,123.82a8,8,0,1,0,8.74,10.49c.1-.31.18-.62.25-.93l181.67,21a8,8,0,1,0,10.57-7.39,7.87,7.87,0,0,0-3.58-.35l-58.34-261.26a8,8,0,1,0-10.45-10,7.24,7.24,0,0,0-.31,1.26l-94.14-1.69a8,8,0,0,0-5.41-7.16,7.89,7.89,0,0,0-3.13-.41L474,2036.28a8,8,0,1,0-9.83-10.25,8.09,8.09,0,0,0-.41,2.9l-102.06,13.64a8,8,0,0,0-5.22-5.79l.71.18,66-253.37a8,8,0,0,0,8.65-11l96.42-51.86a7.91,7.91,0,0,0,4.08,3.16,8,8,0,1,0,.3-15.24l-61.54-153.47a8,8,0,0,0-6.23-14.68l-41.44-92.37a8,8,0,0,0-2.7-14.85l8.14-185.18c-.49,0-1,.06-1.48.07l-8.13,185a8.1,8.1,0,0,0-3.52.94l-92.15-124.28,98.14-64.58a.53.53,0,0,1,0-.12v0a3.18,3.18,0,0,1-.61-1.2l-98.38,64.74-60.27-81.28a10.66,10.66,0,0,1-1.27.76l60.3,81.33-39.88,26.25a8,8,0,0,0-6.73-3l-16-103.76a14.17,14.17,0,0,1-1.45.25l16,103.74a8,8,0,0,0-1,.29l-50.22-100.87a3.25,3.25,0,0,1-.5.19c-.3.1-.59.22-.89.33l50.29,101a8,8,0,0,0-3.09,10L35,1474.45a7.9,7.9,0,0,0-4-3,8,8,0,1,0-1.49,15.49l73.19,314.5a8,8,0,1,0-3.18,15.67l-10.2,118.29a8,8,0,0,0-7.58,10.37l-138.63,57.71.14-2-1.48,2.58-.83.35.42.38-126.29,221c-.24-.11-.48-.21-.74-.3a8,8,0,0,0-10.14,5A8,8,0,0,0-190.87,2240.6Zm161.71,146.17a7.9,7.9,0,0,0-4.07-3.14,7.93,7.93,0,0,0-3.14-.4L-68,2191.68a8,8,0,0,0,3.51-2L89.22,2322.62Zm436.65-777.94L324,1695.62a7.7,7.7,0,0,0-2.42-1.33,4,4,0,0,0-.57-.16l.46-152.37a8,8,0,0,0,4.86-2.24Zm-79.77-70.43a7.55,7.55,0,0,0,1-2,8.3,8.3,0,0,0,.28-1.06L459.4,1548a8,8,0,0,0,2,5.26l-52.41,54.49Zm88.77,238.17-118.34,24.2L405.06,1763l12.43,8.74a7.47,7.47,0,0,0-.63,1.41A7.83,7.83,0,0,0,416.49,1776.57Zm-121.4,23.72a8,8,0,0,0-4.69-4.23l-.08,0,27.61-86.33a8,8,0,0,0,7.6-2.66l78.05,54.88Zm216,467.67-72.68,68.88-122.78-111a8,8,0,0,0,1.17-2.22c0-.09.05-.18.08-.28l192.32,38.71A8,8,0,0,0,511.12,2268Zm-1.51-7.77c0,.13-.08.27-.11.41l-192.3-38.7a8,8,0,0,0-2.25-6.46l44.22-52.38,150.9,96.06A8.61,8.61,0,0,0,509.61,2260.19Zm-195.79-45.7a7.89,7.89,0,0,0-6.09-1.29l-28.07-96.07a8,8,0,0,0,3.37-2.53l74.89,47.66Zm-12.22,8.89-111.93,45.79a8,8,0,0,0-2.47-2.83l56.07-97.19,59.31,47.5a8.23,8.23,0,0,0-.91,1.83A8,8,0,0,0,301.6,2223.38ZM267.37,2329a8.08,8.08,0,0,0-.68,1.49,8.53,8.53,0,0,0-.37,1.63l-83.3.43.2-52a8.05,8.05,0,0,0,5.55-3ZM175.24,2276,90.6,2321.87-63.57,2188.6a9.4,9.4,0,0,0,.68-1.15l.5-.19,237.22,83.65A8,8,0,0,0,175.24,2276Zm-237.52-90.27a7.91,7.91,0,0,0,0-3.75l129.54-43.42,109.65,128.72a7.85,7.85,0,0,0-1.54,2.23Zm131-47.68,88.53-29.67a8,8,0,0,0,4.74,4.35,8.16,8.16,0,0,0,2.69.42L181,2265a8,8,0,0,0-3,1.3Zm93.58-40.57-19.38-41.4L258.64,2007a8.55,8.55,0,0,0,.91,1.34L169.65,2099a8,8,0,0,0-7.35-1.5Zm98.32-88.07a7.83,7.83,0,0,0,5.21,1.8l6.59,58.85-100.49,32a8.32,8.32,0,0,0-1-1.69Zm55.68-314.9a8,8,0,0,0-2.55,1.73l-69.69-16.38-20.47-4.81a8,8,0,0,0-2.43-6.93L255.84,1622Zm-59.95-73.76,60.24-80.16a8,8,0,0,0,1.62.77,8.35,8.35,0,0,0,1.81.38l-.45,152.14a7.72,7.72,0,0,0-2.15.15Zm-33.11,55.75h0l89.48,21a8,8,0,0,0-.86,1.76,8.09,8.09,0,0,0-.41,3.17l-61.92,31.14-29.29-53.11A7.93,7.93,0,0,0,223.24,1676.51Zm25,57.76L107.67,1805a8.62,8.62,0,0,0-1.07-1.34l104.6-123a8.37,8.37,0,0,0,1.89,1,8,8,0,0,0,5.88-.3Zm.71,1.29,34,61.73a8,8,0,0,0-2.71,3.78,7.44,7.44,0,0,0-.38,1.84l-15,.46-156.08,4.85a8.28,8.28,0,0,0-.49-1.93Zm36.33,75.66.34.09-12.19,113.23-7.61,70.69a8,8,0,0,0-4.71,1.46L168.81,1888l112.6-79.63A8,8,0,0,0,285.26,1811.22Zm60.94,235.37-72.35,23-6.55-58.55a8,8,0,0,0,5.26-3.75l73.61,34.94A7.9,7.9,0,0,0,346.2,2046.59ZM276,2101.74a8,8,0,0,0-6.82,5.38,8.55,8.55,0,0,0-.29,1.16l-96.31-2.62a7.78,7.78,0,0,0-.17-2.21l100.21-31.88Zm-103.82,6a6.09,6.09,0,0,0,.17-.61l96.41,2.63a8,8,0,0,0,3.37,6.47l-29.24,50.69-71.61-57.36A7.72,7.72,0,0,0,172.14,2107.74ZM244,2167.85,273.37,2117c.25.11.51.21.77.3a8,8,0,0,0,4.1.28l28.07,96.06a8.06,8.06,0,0,0-2.81,1.89Zm38.44-63.71a7.88,7.88,0,0,0-3.17-2,7.52,7.52,0,0,0-1.85-.38L274,2071.11,346.74,2048a8.05,8.05,0,0,0,.78,1.24Zm64.22-63.28L273.19,2006l.07-.18a8,8,0,0,0-5-10.15,8.32,8.32,0,0,0-1-.26l19.78-183.79a8,8,0,0,0,1.62,0l62,225.43A8,8,0,0,0,346.68,2040.86ZM284.22,1796.5l-34-61.6L311.73,1704a8,8,0,0,0,4.78,5.32l-27.63,86.41A8,8,0,0,0,284.22,1796.5Zm42.25-268.72a7.94,7.94,0,0,0-2.71-1.57,8.07,8.07,0,0,0-3.69-.34l-11.75-49.41,103.59-32.61a8.08,8.08,0,0,0,1.09,2.05Zm-7.84-1.56a8,8,0,0,0-5,5,8.1,8.1,0,0,0-.27,1L178.92,1519a7.64,7.64,0,0,0-.18-1.73l128.17-40.35Zm-139.86-5.77,28.44,2.81,106,10.48a8,8,0,0,0,2.62,6l-60,79.89-79.19-95a7.91,7.91,0,0,0,1.91-3.07A8.24,8.24,0,0,0,178.77,1520.45Zm76.1,100.36L220,1667.22a7.81,7.81,0,0,0-5.69-1.16l-40.45-139.68a8,8,0,0,0,1.6-.86Zm-42,45.63a8.22,8.22,0,0,0-2.19,1.25L151,1605.57l18.78-78.72a8,8,0,0,0,2.64-.06Zm-3.25,2.27a7.88,7.88,0,0,0-1.53,2.66,8,8,0,0,0,2,8.27l-104.58,123a7.9,7.9,0,0,0-1.33-.76l46.45-194.62ZM108.46,1811.78a8,8,0,0,0,.4-2.08l171-5.31a8,8,0,0,0,.77,2.76l-112.79,79.76-61.25-72.12A8,8,0,0,0,108.46,1811.78ZM260,1997.64a7.92,7.92,0,0,0-1.58,2.33L97.09,1945.21a7.94,7.94,0,0,0-.85-5.85l71.36-50.46Zm-163.34-51,161.28,54.76a8,8,0,0,0,.16,4.29l-115.77,49.1L93.36,1950.25A8,8,0,0,0,96.62,1946.61ZM160.93,2098a8,8,0,0,0-4.3,6.11l-112.74-3.93a8.08,8.08,0,0,0-.37-2l98-41.58ZM43.84,2101.7l44.47,1.57,68.27,2.4a8.24,8.24,0,0,0,.2,1.32l-89.09,29.86-26.06-30.59a8.11,8.11,0,0,0,1.85-3A8.49,8.49,0,0,0,43.84,2101.7Zm22.34,35.66-129,43.23a8.31,8.31,0,0,0-.59-1.05l64.5-50.61,29-22.75a8,8,0,0,0,10.41,1Zm-37.86-39.25a8,8,0,0,0,.86,6.9l-93.52,73.37a7.76,7.76,0,0,0-.73-.66L8.56,2066.59,37,2092.76A8,8,0,0,0,28.32,2098.11Zm67.53,233.25a7.93,7.93,0,0,0-.07,4.91l-119,49,113.65-61.58,6.51,5.62A7.87,7.87,0,0,0,95.85,2331.36Zm10.15-5a8,8,0,0,0-8.12,1.81l-6.08-5.26,83.06-45-65.58,50.59A7.92,7.92,0,0,0,106,2326.35Zm75.75,79.55a8.05,8.05,0,0,0-4.36,1.79L110,2339.52a8,8,0,0,0,1.45-2.57,7.79,7.79,0,0,0,.39-1.87l70.22-.36Zm.07-72.82-70.23.36a8,8,0,0,0-1.2-3.5l66.54-51.33a8,8,0,0,0,3.29,2.12,7.23,7.23,0,0,0,1.8.38ZM166.15,2113a8.08,8.08,0,0,0,4.17-2.28l71.78,57.49-56.17,97.39a7.28,7.28,0,0,0-.77-.31,8.16,8.16,0,0,0-2.69-.42Zm21.63,294.46a8.06,8.06,0,0,0-2.95-1.8,8.35,8.35,0,0,0-1.81-.38l.28-71.2,83.26-.43a8.05,8.05,0,0,0,1.49,4.13ZM268.3,2328l-68-44.47,75.11,41.8A8,8,0,0,0,268.3,2328Zm13.65,7.68a8,8,0,0,0-1.47-7.54l85.68,47.68Zm98.48,46.39-190.53-106c.1-.21.18-.43.26-.65a8,8,0,0,0,.07-4.9l111.93-45.79a8,8,0,0,0,9.81,3.82l70.93,151A8,8,0,0,0,380.43,2382.11Zm12.06-1.73a7.95,7.95,0,0,0-8.27-1.43l-70.92-151a7.39,7.39,0,0,0,1.37-1l122.69,110.92Zm84.35-3.55a7.91,7.91,0,0,0-.43,2.42l-81.3,6a8,8,0,0,0-1.61-3.8l45-42.61L478,2374.61A8,8,0,0,0,476.84,2376.83Zm2.16-3.32-39.47-35.68L512.18,2269a8,8,0,0,0,2.43,1.35l-28.73,101.2A8,8,0,0,0,479,2373.51Zm202.84,165.91a8,8,0,0,0-.24.93l-181.68-21a8,8,0,0,0-3.6-6.86l80.76-151.36L684.61,2535.6A8,8,0,0,0,681.84,2539.42Zm-57.22-266.49a8,8,0,0,0,4,.29L687,2534.39a7.31,7.31,0,0,0-1.09.44l-108-175.25,46.33-86.81Zm-99.86-7.6a8,8,0,0,0,.36-1.5l94.08,1.68a8,8,0,0,0,3.69,6.58l-45.9,86-54.88-89.06A8,8,0,0,0,524.76,2265.33Zm-7.32,5.42a7.9,7.9,0,0,0,3.42-.89l55.32,89.78L495,2511.75l-.52-.2a8.1,8.1,0,0,0-1.05-.27Zm-25.3,238.72-6.56-122.16A8,8,0,0,0,487.3,2372l28.62-100.8Zm-25-474.31a7.89,7.89,0,0,0,5.37,1.4L515.18,2255a8,8,0,0,0-4.32,2.85l-150.73-95.95Zm-2.5-2.82a8.33,8.33,0,0,0,1.37,1.87L358.88,2161.12l-75.06-47.77a7.8,7.8,0,0,0,.53-6Zm-103.2,14.58a7.82,7.82,0,0,0,.41-2.89l102.07-13.64c0,.2.1.39.16.59l-180.31,75a6.58,6.58,0,0,0-.4-.67l65.14-55a8,8,0,0,0,12.93-3.38Zm-5.71-10.35a8,8,0,0,0-3.64,0l-62-225.26a8,8,0,0,0,5.28-5.09,7.84,7.84,0,0,0,.37-3.44l121-24.75a8,8,0,0,0,4.93,5.2Zm75.35-265.29a7.89,7.89,0,0,0-4.09-3.16,8,8,0,0,0-8.66,2.39l-11.57-8.14,119.29-42.17Zm-25.81-10-78.89-55.49a8.42,8.42,0,0,0,.63-1.4,7.58,7.58,0,0,0,.32-1.31l199.53,13.38a8.58,8.58,0,0,0,.24,1.75Zm122-47.6a7.7,7.7,0,0,0-.32,1.3l-199.53-13.37a8.06,8.06,0,0,0-1.94-5L409,1609.8l119.29,101.89A7.84,7.84,0,0,0,527.29,1713.73Zm-62.46-158.1a7.89,7.89,0,0,0,4.85.09l61.54,153.47a7.73,7.73,0,0,0-1.93,1.38L410.06,1608.73l52.35-54.42A7.88,7.88,0,0,0,464.83,1555.63Zm-48-106.89a8,8,0,0,0,5.16,0l41.44,92.37a7.94,7.94,0,0,0-3.65,4.39,7.84,7.84,0,0,0-.27,1.06l-130.36-12.72a8.09,8.09,0,0,0-1.71-5L414,1447A8,8,0,0,0,416.87,1448.74ZM282.35,1336.93l39.95-26.29,92.15,124.28a8.63,8.63,0,0,0-.77.71l-131.42-91a8.2,8.2,0,0,0,.61-1.35A8,8,0,0,0,282.35,1336.93Zm-.93,8.9,131.33,91a7.92,7.92,0,0,0-.88,1.8,8.12,8.12,0,0,0-.33,3.83L308,1475l-30.13-126.75A8.06,8.06,0,0,0,281.42,1345.83Zm-9.51,2.11q.39.18.81.33a8,8,0,0,0,3.7.34l30.15,126.85L178.3,1515.84a8,8,0,0,0-2.71-3.41Zm-3.2-2.71a7.94,7.94,0,0,0,1.92,2l-96.32,164.5a5.73,5.73,0,0,0-.81-.33,8,8,0,0,0-10,4.72L36.23,1480.42a7.93,7.93,0,0,0-.56-4.68ZM35.83,1481.84l127.23,35.66a8,8,0,0,0,5.29,9h0l-18.57,77.79L34.42,1484.21A7.93,7.93,0,0,0,35.83,1481.84Zm-4.94,4.73a8.27,8.27,0,0,0,2.46-1.33l116,120.77-45.92,192.4Zm70.05,330.63a8,8,0,0,0,4.53-1.45l61.17,72-71.25,50.38a8.07,8.07,0,0,0-3.5-2.38,9.62,9.62,0,0,0-1.15-.28ZM92,1950.88l48.91,104.45-98,41.56a8,8,0,0,0-3.78-3.52l48.29-142.24A8,8,0,0,0,92,1950.88Zm-6-.22L38.14,2091.79,9.38,2065.34,85.53,1950.4Zm-3.81-3.57a8,8,0,0,0,2,2.49l-76,114.75-64.7-59.51Zm-139.39,59.08,64.59,59.41L-66.3,2176.9a7.77,7.77,0,0,0-1.21-.53,7.56,7.56,0,0,0-1.29-.31Zm-1.59,1.58L-70.27,2176a8,8,0,0,0-7.39,5.42,8,8,0,0,0,2.75,9l-106.18,39.25a7.92,7.92,0,0,0-2.62-3.1Z"/><circle cx="427.52" cy="1240.58" r="7.5"/><circle cx="256.52" cy="1220.58" r="9.5"/><circle cx="219.52" cy="1225.58" r="7.5"/></g><g id="geometria_sombra_esquerda" data-name="geometria sombra esquerda" class="cls-4"><path d="M1889.17,1207.41a.13.13,0,0,1,0-.06l-155.18-17a9.16,9.16,0,0,1,0,1.48l151.25,16.59,3.57.3A9.63,9.63,0,0,1,1889.17,1207.41Z"/><path d="M1928.35,1204.94l-22.65,2.42a10.22,10.22,0,0,1,.18,1.46l22.51-2.4C1928.37,1205.92,1928.35,1205.43,1928.35,1204.94Z"/><path d="M2345.06,189.48a8,8,0,0,0-10.15,5,7.92,7.92,0,0,0-.15,4.64L2227.45,238.8a6.44,6.44,0,0,0-.61-.24,7.94,7.94,0,0,0-3.14-.41L2192,46.61a8,8,0,1,0-9.6-10.31,7.86,7.86,0,0,0-.07,4.91l-124.5,51.23A8,8,0,0,0,2045.69,90L1978.27,21.8a8,8,0,1,0-13.7-7.71,8,8,0,0,0,1.08,7.23L1885.38,91a8,8,0,0,0-12.56,2l-98.22-46.8a8,8,0,0,0-15.18-5.06,8.68,8.68,0,0,0-.41,2.21l-81.34,6a8,8,0,0,0-5.32-6.25,8.16,8.16,0,0,0-2.26-.41l-6.66-123.82a8,8,0,0,0,6.41-5.34,8,8,0,0,0-5-10.15,8,8,0,0,0-10.15,5c-.1.31-.18.62-.25.93l-181.67-21a8,8,0,0,0-5.43-7.76,8,8,0,0,0-10.15,5,8,8,0,0,0,5,10.15,8,8,0,0,0,3.58.35l58.34,261.25a8,8,0,1,0,10.45,10,7.24,7.24,0,0,0,.31-1.26l94.14,1.68a8,8,0,0,0,5.41,7.17,7.89,7.89,0,0,0,3.13.41l42.66,218.5a8,8,0,1,0,9.83,10.25,8.09,8.09,0,0,0,.41-2.9l102.06-13.64a8,8,0,0,0,5.22,5.79l-.71-.18-66,253.37a8,8,0,0,0-8.65,11L1626,709.36a7.91,7.91,0,0,0-4.08-3.16,8,8,0,0,0-5.15,15.15,7.89,7.89,0,0,0,4.85.09l61.54,153.47a8,8,0,0,0,6.23,14.68L1730.81,982a8,8,0,0,0,1.36,14.54,7.91,7.91,0,0,0,1.34.32L1725.37,1182c.49,0,1-.07,1.48-.07l8.13-185a8,8,0,0,0,3.52-.93l92.15,124.28-98.14,64.58a.42.42,0,0,1,0,.12v0a3.18,3.18,0,0,1,.61,1.2l98.38-64.74,60.27,81.28a9.48,9.48,0,0,1,1.27-.76l-60.3-81.33,39.88-26.25a8,8,0,0,0,6.73,3l16,103.76a11.88,11.88,0,0,1,1.45-.25l-16-103.74c.32-.08.64-.18,1-.29L1932,1197.72a3.25,3.25,0,0,1,.5-.19c.3-.1.59-.22.89-.33l-50.29-101a8,8,0,0,0,3.09-10l233-130.51a7.9,7.9,0,0,0,4,3,8,8,0,1,0,1.49-15.49l-73.19-314.5a8,8,0,1,0,3.18-15.67l10.2-118.29a8,8,0,0,0,7.58-10.37l138.63-57.71-.14,2,1.48-2.58.83-.35-.42-.38,126.29-221a6,6,0,0,0,.74.29,8,8,0,0,0,5.14-15.15ZM2183.35,43.31a8,8,0,0,0,7.21,3.54l31.68,191.55a8,8,0,0,0-3.51,2L2065,107.46ZM1746.7,821.24l83.48-86.78a7.9,7.9,0,0,0,2.42,1.33c.19.07.38.11.57.16l-.46,152.37a8,8,0,0,0-4.86,2.24Zm79.77,70.44a7.55,7.55,0,0,0-1,2,7.88,7.88,0,0,0-.28,1.06l-130.36-12.72a8,8,0,0,0-2-5.26l52.41-54.49ZM1737.7,653.51,1856,629.3l-106.91,37.8-12.43-8.74a7.47,7.47,0,0,0,.63-1.41A7.83,7.83,0,0,0,1737.7,653.51Zm121.4-23.72a8,8,0,0,0,4.69,4.23l.08,0-27.61,86.33a8,8,0,0,0-7.6,2.66l-78.05-54.88Zm-216-467.67,72.68-68.88,122.78,111a8,8,0,0,0-1.17,2.22c0,.09,0,.18-.08.27L1645,168A8,8,0,0,0,1643.07,162.12Zm1.51,7.77c0-.14.08-.27.11-.41l192.3,38.7a8,8,0,0,0,2.25,6.46L1795,267,1644.12,171A9.31,9.31,0,0,0,1644.58,169.89Zm195.79,45.7a7.89,7.89,0,0,0,6.09,1.29L1874.53,313a8,8,0,0,0-3.37,2.53l-74.89-47.66Zm12.22-8.89,111.93-45.79a8,8,0,0,0,2.47,2.83l-56.07,97.19-59.31-47.5a8.23,8.23,0,0,0,.91-1.83A8,8,0,0,0,1852.59,206.7Zm34.23-105.58a8.08,8.08,0,0,0,.68-1.49,8.53,8.53,0,0,0,.37-1.63l83.3-.43-.2,52a8,8,0,0,0-5.55,3ZM1979,154.07l84.64-45.86,154.17,133.27a8.7,8.7,0,0,0-.68,1.15l-.5.19-237.22-83.66A8,8,0,0,0,1979,154.07Zm237.52,90.27a7.91,7.91,0,0,0,.05,3.75L2087,291.51,1977.33,162.79a8,8,0,0,0,1.54-2.23Zm-131,47.67-88.53,29.68a8,8,0,0,0-4.74-4.35,8.16,8.16,0,0,0-2.69-.42l-16.32-151.87a8,8,0,0,0,3-1.3Zm-93.58,40.57L2011.27,374l-115.72,49.07a8.55,8.55,0,0,0-.91-1.34l89.9-90.63a8,8,0,0,0,7.35,1.49Zm-98.32,88.08a7.83,7.83,0,0,0-5.21-1.8L1881.77,360l100.49-32a8.32,8.32,0,0,0,1,1.69Zm-55.68,314.9a8,8,0,0,0,2.55-1.73l69.69,16.38L1930.6,755A8,8,0,0,0,1933,762l-34.68,46.15Zm59.95,73.76-60.24,80.16a8,8,0,0,0-1.62-.77,8.35,8.35,0,0,0-1.81-.38l.45-152.14a7.72,7.72,0,0,0,2.15-.15ZM1931,753.57h0l-89.48-21a8.21,8.21,0,0,0,.86-1.76,8.09,8.09,0,0,0,.41-3.17l61.92-31.15,29.29,53.12A7.93,7.93,0,0,0,1931,753.57Zm-25-57.76,140.55-70.7a8.25,8.25,0,0,0,1.07,1.35l-104.6,123a8.37,8.37,0,0,0-1.89-1,8,8,0,0,0-5.88.3Zm-.71-1.29-34-61.73a8,8,0,0,0,2.71-3.78,7.54,7.54,0,0,0,.38-1.84l15-.47,156.08-4.84a8.41,8.41,0,0,0,.49,1.93Zm-36.33-75.66-.34-.09,12.19-113.23,7.61-70.69a8,8,0,0,0,4.71-1.46L1985.38,542l-112.6,79.63A8,8,0,0,0,1868.93,618.86ZM1808,383.49l72.35-23,6.55,58.55a8,8,0,0,0-5.26,3.75L1808,387.83A7.9,7.9,0,0,0,1808,383.49Zm70.24-55.15a8,8,0,0,0,6.82-5.39,8.07,8.07,0,0,0,.29-1.15l96.31,2.62a7.78,7.78,0,0,0,.17,2.21l-100.21,31.88Zm103.82-6c-.07.2-.12.4-.17.6l-96.41-2.62a8,8,0,0,0-3.37-6.47l29.24-50.69L1983,320.52A7.53,7.53,0,0,0,1982.05,322.34Zm-71.88-60.11-29.35,50.88c-.25-.11-.51-.21-.77-.3a7.89,7.89,0,0,0-4.1-.28l-28.07-96.07a7.9,7.9,0,0,0,2.81-1.88Zm-38.44,63.71a8,8,0,0,0,3.17,2,7.52,7.52,0,0,0,1.85.38l3.42,30.63-72.72,23.14a7.6,7.6,0,0,0-.78-1.24Zm-64.22,63.28L1881,424.1l-.07.18a8,8,0,0,0,5,10.15,6.71,6.71,0,0,0,1,.25l-19.78,183.8a8,8,0,0,0-1.62,0l-62-225.43A8,8,0,0,0,1807.51,389.22ZM1870,633.58l34,61.6-61.48,30.92a8,8,0,0,0-4.78-5.32l27.63-86.41A8,8,0,0,0,1870,633.58ZM1827.72,902.3a7.91,7.91,0,0,0,6.4,1.9l11.75,49.42-103.59,32.61a8.08,8.08,0,0,0-1.09-2.05Zm7.84,1.56a8,8,0,0,0,5-5,8.1,8.1,0,0,0,.27-1.05l134.42,13.29a7.76,7.76,0,0,0,.18,1.73l-128.17,40.35Zm139.86,5.77L1947,906.81l-106-10.47a8.05,8.05,0,0,0-2.62-6l60-79.88,79.19,95a7.72,7.72,0,0,0-2.18,4.13Zm-76.1-100.36,34.88-46.41a7.81,7.81,0,0,0,5.69,1.16l40.45,139.68a7.48,7.48,0,0,0-1.6.86Zm42-45.64a7.93,7.93,0,0,0,2.19-1.24l59.67,62.12-18.78,78.72a8,8,0,0,0-2.64.06Zm3.25-2.26a7.88,7.88,0,0,0,1.53-2.66,8,8,0,0,0-2-8.27l104.58-123a8.65,8.65,0,0,0,1.33.76L2003.59,822.8ZM2045.73,618.3a8,8,0,0,0-.4,2.08l-171,5.31a8,8,0,0,0-.77-2.76l112.79-79.76,61.25,72.12A8,8,0,0,0,2045.73,618.3Zm-151.5-185.86a8.06,8.06,0,0,0,1.58-2.33l161.29,54.76a7.94,7.94,0,0,0,.85,5.85l-71.36,50.46Zm163.34,51-161.28-54.76a8,8,0,0,0-.16-4.29l115.77-49.1,48.93,104.51A8,8,0,0,0,2057.57,483.47ZM1993.26,332a8,8,0,0,0,4.3-6.11l112.74,3.93a8.08,8.08,0,0,0,.37,2l-98,41.58Zm117.09-3.66-44.47-1.57-68.27-2.41a8.29,8.29,0,0,0-.2-1.31l89.09-29.86,26.06,30.59a8.11,8.11,0,0,0-1.85,3A8.49,8.49,0,0,0,2110.35,328.38ZM2088,292.72l129-43.24a8.43,8.43,0,0,0,.59,1.06l-64.5,50.61-29,22.75a8.12,8.12,0,0,0-3.24-2.08,8,8,0,0,0-7.17,1ZM2125.87,332a8,8,0,0,0-.86-6.9l93.52-73.37a7.76,7.76,0,0,0,.73.66l-73.63,111.13-28.45-26.17A8,8,0,0,0,2125.87,332ZM2058.34,98.72a8,8,0,0,0,.07-4.92l119-49-113.65,61.59-6.51-5.62A7.87,7.87,0,0,0,2058.34,98.72Zm-10.15,5a8,8,0,0,0,8.12-1.81l6.08,5.26-83.06,45,65.58-50.59A8,8,0,0,0,2048.19,103.73Zm-75.75-79.55a8.05,8.05,0,0,0,4.36-1.79l67.43,68.17a8.06,8.06,0,0,0-1.45,2.56,7.87,7.87,0,0,0-.39,1.88l-70.22.36ZM1972.37,97l70.23-.36a8,8,0,0,0,1.2,3.5l-66.54,51.33a8,8,0,0,0-3.29-2.12,7.23,7.23,0,0,0-1.8-.38ZM1988,317.08a8.08,8.08,0,0,0-4.17,2.28l-71.78-57.5,56.17-97.38a7.28,7.28,0,0,0,.77.31,8.16,8.16,0,0,0,2.69.42ZM1966.41,22.62a8.06,8.06,0,0,0,2.95,1.8,8.35,8.35,0,0,0,1.81.38l-.28,71.2-83.26.43a8.05,8.05,0,0,0-1.49-4.13ZM1885.89,102l68,44.47-75.11-41.8A8,8,0,0,0,1885.89,102Zm-13.65-7.69a8,8,0,0,0,1.47,7.54L1788,54.22ZM1773.76,48l190.53,106c-.1.21-.18.43-.26.65a8,8,0,0,0-.07,4.9L1852,205.33a8,8,0,0,0-9.81-3.82l-70.93-151A8,8,0,0,0,1773.76,48ZM1761.7,49.7a7.8,7.8,0,0,0,2.73,1.58,7.92,7.92,0,0,0,5.54-.15l70.92,151a7.39,7.39,0,0,0-1.37,1L1716.83,92.22Zm-84.35,3.55a7.91,7.91,0,0,0,.43-2.42l81.3-6a8,8,0,0,0,1.61,3.8l-45,42.61-39.55-35.76A8.11,8.11,0,0,0,1677.35,53.25Zm-2.16,3.32,39.47,35.68L1642,161.09a8,8,0,0,0-2.43-1.35l28.73-101.2A8,8,0,0,0,1675.19,56.57ZM1472.35-109.35a7.32,7.32,0,0,0,.24-.92l181.68,21a8,8,0,0,0,3.6,6.86L1577.11,69,1469.58-105.52A8,8,0,0,0,1472.35-109.35Zm57.22,266.5a8,8,0,0,0-4-.29l-58.31-261.17a7.31,7.31,0,0,0,1.09-.44l108,175.25L1530,157.31Zm99.86,7.59a8.27,8.27,0,0,0-.36,1.51L1535,164.57a8,8,0,0,0-3.69-6.58l45.9-86L1632.08,161A8,8,0,0,0,1629.43,164.74Zm7.32-5.41a7.76,7.76,0,0,0-3.42.89L1578,70.44l81.16-152.12a4.71,4.71,0,0,0,.52.21,8.1,8.1,0,0,0,1,.27Zm25.3-238.72,6.56,122.16a8,8,0,0,0-1.72,15.36l-28.62,100.8Zm25,474.31a7.89,7.89,0,0,0-5.37-1.4L1639,175.06a8,8,0,0,0,4.32-2.85l150.73,96Zm2.5,2.82a8.33,8.33,0,0,0-1.37-1.87L1795.31,269l75.06,47.77a7.8,7.8,0,0,0-.53,6Zm103.2-14.59a7.87,7.87,0,0,0-.41,2.9l-102.07,13.64c0-.2-.1-.39-.16-.59l180.31-75a6.58,6.58,0,0,0,.4.67l-65.14,55a8,8,0,0,0-12.93,3.37Zm5.71,10.36a8,8,0,0,0,3.64,0l62,225.26a8,8,0,0,0-5.28,5.09,7.83,7.83,0,0,0-.37,3.44l-121,24.75a8,8,0,0,0-4.93-5.2ZM1723.1,658.8a8,8,0,0,0,12.75.76l11.57,8.15-119.29,42.17Zm25.81,10,78.89,55.49a8.07,8.07,0,0,0-.63,1.4,7.58,7.58,0,0,0-.32,1.31l-199.53-13.38a8.58,8.58,0,0,0-.24-1.75Zm-122,47.6a7.7,7.7,0,0,0,.32-1.3l199.53,13.37a8.06,8.06,0,0,0,1.94,5l-83.54,86.84L1625.86,718.39A7.84,7.84,0,0,0,1626.9,716.35Zm62.46,158.09a8,8,0,0,0-4.85-.08L1623,720.89a7.73,7.73,0,0,0,1.93-1.38l119.23,101.84-52.35,54.42A8.12,8.12,0,0,0,1689.36,874.44Zm48,106.9a8,8,0,0,0-5.16,0L1690.72,889a7.94,7.94,0,0,0,3.65-4.39,8.24,8.24,0,0,0,.27-1.06L1825,896.25a8.09,8.09,0,0,0,1.71,5l-86.5,81.85A8,8,0,0,0,1737.32,981.34Zm134.52,111.8-39.95,26.3-92.15-124.28a8.63,8.63,0,0,0,.77-.71l131.42,91a7.51,7.51,0,0,0-.61,1.35A8,8,0,0,0,1871.84,1093.14Zm.93-8.89-131.33-91a7.92,7.92,0,0,0,.88-1.8,8.12,8.12,0,0,0,.33-3.83l103.56-32.6,30.13,126.75A8,8,0,0,0,1872.77,1084.25Zm9.51-2.11a7.22,7.22,0,0,0-.81-.33,8,8,0,0,0-3.7-.34l-30.15-126.85,128.27-40.38a8,8,0,0,0,2.71,3.41Zm3.2,2.71a8.16,8.16,0,0,0-1.92-2l96.32-164.49a7.22,7.22,0,0,0,.81.33,8,8,0,0,0,10-4.72L2118,949.66a7.93,7.93,0,0,0,.56,4.68Zm232.88-136.61-127.23-35.66a8,8,0,0,0-5.29-9h0l18.57-77.8,115.37,120.09A8.1,8.1,0,0,0,2118.36,948.24Zm4.94-4.73a8.27,8.27,0,0,0-2.46,1.33l-116-120.77,45.92-192.4Zm-70.05-330.63a8,8,0,0,0-4.53,1.45l-61.17-72,71.25-50.38a7.85,7.85,0,0,0,4.65,2.66Zm8.92-133.68-48.91-104.45,98-41.56a8,8,0,0,0,3.78,3.52L2066.74,479A8,8,0,0,0,2062.17,479.2Zm6,.23,47.92-141.14,28.76,26.45-76.16,114.94Zm3.81,3.56a8,8,0,0,0-2.05-2.49l76-114.75,64.7,59.51Zm139.39-59.08-64.59-59.41,73.75-111.32a7.77,7.77,0,0,0,1.21.53,7.56,7.56,0,0,0,1.29.31Zm1.59-1.58,11.54-168.2a8,8,0,0,0,4.64-14.37l106.18-39.25a8,8,0,0,0,2.62,3.1Z"/><circle cx="1726.67" cy="1189.5" r="7.5"/><circle cx="1897.67" cy="1209.5" r="9.5"/><path d="M1889.17,1234.67a.13.13,0,0,0,0,.06l-155.18,17a9.16,9.16,0,0,0,0-1.48l151.25-16.59,3.57-.3A9.63,9.63,0,0,0,1889.17,1234.67Z"/><path d="M1928.35,1237.14l-22.65-2.42a10.22,10.22,0,0,0,.18-1.46l22.51,2.4C1928.37,1236.16,1928.35,1236.65,1928.35,1237.14Z"/><path d="M2345.06,2252.6a8,8,0,0,1-10.15-5,7.92,7.92,0,0,1-.15-4.64l-107.31-39.67a6.44,6.44,0,0,1-.61.24,7.94,7.94,0,0,1-3.14.41L2192,2395.47a8,8,0,1,1-9.6,10.31,7.86,7.86,0,0,1-.07-4.91l-124.5-51.23a8,8,0,0,1-12.16,2.47l-67.42,68.17a7.85,7.85,0,0,1,1.45,2.56,8,8,0,1,1-14.07-2.08l-80.27-69.69a8,8,0,0,1-12.56-2l-98.22,46.81a8,8,0,0,1-15.18,5.05,8.53,8.53,0,0,1-.41-2.2l-81.34-6a8,8,0,0,1-5.32,6.26,8.16,8.16,0,0,1-2.26.41l-6.66,123.82a8,8,0,1,1-8.74,10.49c-.1-.31-.18-.62-.25-.93l-181.67,21a8,8,0,1,1-10.57-7.39,7.87,7.87,0,0,1,3.58-.35l58.34-261.26a8,8,0,1,1,10.45-10,7.24,7.24,0,0,1,.31,1.26l94.14-1.69a8,8,0,0,1,5.41-7.16,7.89,7.89,0,0,1,3.13-.41l42.66-218.5a8,8,0,1,1,9.83-10.25,8.09,8.09,0,0,1,.41,2.9l102.06,13.64a8,8,0,0,1,5.22-5.79l-.71.18-66-253.37a8,8,0,0,1-8.65-11L1626,1732.72a7.91,7.91,0,0,1-4.08,3.16,8,8,0,1,1-.3-15.24l61.54-153.47a8,8,0,0,1,6.23-14.68l41.44-92.37a8,8,0,0,1,2.7-14.85l-8.14-185.18c.49,0,1,.06,1.48.07l8.13,185a8.1,8.1,0,0,1,3.52.94l92.15-124.28-98.14-64.58a.53.53,0,0,0,0-.12v0a3.18,3.18,0,0,0,.61-1.2l98.38,64.74,60.27-81.28a10.66,10.66,0,0,0,1.27.76l-60.3,81.33,39.88,26.25a8,8,0,0,1,6.73-3l16-103.76a14.17,14.17,0,0,0,1.45.25l-16,103.74a8,8,0,0,1,1,.29L1932,1244.36a3.25,3.25,0,0,0,.5.19c.3.1.59.22.89.33l-50.29,101a8,8,0,0,1,3.09,10l233,130.51a7.9,7.9,0,0,1,4-3,8,8,0,1,1,1.49,15.49l-73.19,314.5a8,8,0,1,1,3.18,15.67l10.2,118.29a8,8,0,0,1,7.58,10.37l138.63,57.71-.14-2,1.48,2.58.83.35-.42.38,126.29,221c.24-.11.48-.21.74-.3a8,8,0,0,1,5.14,15.16Zm-161.71,146.17a7.94,7.94,0,0,1,7.21-3.54l31.68-191.55a8,8,0,0,1-3.51-2L2065,2334.62ZM1746.7,1620.83l83.48,86.79a7.7,7.7,0,0,1,2.42-1.33,4,4,0,0,1,.57-.16l-.46-152.37a8,8,0,0,1-4.86-2.24Zm79.77-70.43a7.55,7.55,0,0,1-1-2,8.3,8.3,0,0,1-.28-1.06L1694.79,1560a8,8,0,0,1-2,5.26l52.41,54.49Zm-88.77,238.17,118.34,24.2L1749.13,1775l-12.43,8.74a7.47,7.47,0,0,1,.63,1.41A7.83,7.83,0,0,1,1737.7,1788.57Zm121.4,23.72a8,8,0,0,1,4.69-4.23l.08,0-27.61-86.33a8,8,0,0,1-7.6-2.66l-78.05,54.88Zm-216,467.67,72.68,68.88,122.78-111a8,8,0,0,1-1.17-2.22c0-.09,0-.18-.08-.28L1645,2274.05A8,8,0,0,1,1643.07,2280Zm1.51-7.77c0,.13.08.27.11.41l192.3-38.7a8,8,0,0,1,2.25-6.46L1795,2175.06l-150.9,96.06A8.61,8.61,0,0,1,1644.58,2272.19Zm195.79-45.7a7.89,7.89,0,0,1,6.09-1.29l28.07-96.07a8,8,0,0,1-3.37-2.53l-74.89,47.66Zm12.22,8.89,111.93,45.79a8,8,0,0,1,2.47-2.83l-56.07-97.19-59.31,47.5a8.23,8.23,0,0,1,.91,1.83A8,8,0,0,1,1852.59,2235.38ZM1886.82,2341a8.08,8.08,0,0,1,.68,1.49,8.53,8.53,0,0,1,.37,1.63l83.3.43-.2-52a8.05,8.05,0,0,1-5.55-3ZM1979,2288l84.64,45.86,154.17-133.27a9.4,9.4,0,0,1-.68-1.15l-.5-.19-237.22,83.65A8,8,0,0,1,1979,2288Zm237.52-90.27a7.91,7.91,0,0,1,.05-3.75L2087,2150.57l-109.65,128.72a7.85,7.85,0,0,1,1.54,2.23Zm-131-47.68-88.53-29.67a8,8,0,0,1-4.74,4.35,8.16,8.16,0,0,1-2.69.42L1973.19,2277a8,8,0,0,1,3,1.3Zm-93.58-40.57,19.38-41.4L1895.55,2019a8.55,8.55,0,0,1-.91,1.34l89.9,90.63a8,8,0,0,1,7.35-1.5Zm-98.32-88.07a7.83,7.83,0,0,1-5.21,1.8l-6.59,58.85,100.49,32a8.32,8.32,0,0,1,1-1.69Zm-55.68-314.9a8,8,0,0,1,2.55,1.73l69.69-16.38,20.47-4.81a8,8,0,0,1,2.43-6.93L1898.35,1634Zm59.95-73.76-60.24-80.16a8,8,0,0,1-1.62.77,8.35,8.35,0,0,1-1.81.38l.45,152.14a7.72,7.72,0,0,1,2.15.15Zm33.11,55.75h0l-89.48,21a8,8,0,0,1,.86,1.76,8.09,8.09,0,0,1,.41,3.17l61.92,31.14,29.29-53.11A7.93,7.93,0,0,1,1931,1688.51Zm-25,57.76L2046.52,1817a8.62,8.62,0,0,1,1.07-1.34l-104.6-123a8.37,8.37,0,0,1-1.89,1,8,8,0,0,1-5.88-.3Zm-.71,1.29-34,61.73a8,8,0,0,1,2.71,3.78,7.44,7.44,0,0,1,.38,1.84l15,.46,156.08,4.85a8.28,8.28,0,0,1,.49-1.93Zm-36.33,75.66-.34.09,12.19,113.23,7.61,70.69a8,8,0,0,1,4.71,1.46L1985.38,1900l-112.6-79.63A8,8,0,0,1,1868.93,1823.22ZM1808,2058.59l72.35,23,6.55-58.55a8,8,0,0,1-5.26-3.75L1808,2054.25A7.9,7.9,0,0,1,1808,2058.59Zm70.24,55.15a8,8,0,0,1,6.82,5.38,8.55,8.55,0,0,1,.29,1.16l96.31-2.62a7.78,7.78,0,0,1,.17-2.21l-100.21-31.88Zm103.82,6a6.09,6.09,0,0,1-.17-.61l-96.41,2.63a8,8,0,0,1-3.37,6.47l29.24,50.69,71.61-57.36A7.72,7.72,0,0,1,1982.05,2119.74Zm-71.88,60.11L1880.82,2129c-.25.11-.51.21-.77.3a8,8,0,0,1-4.1.28l-28.07,96.06a8.06,8.06,0,0,1,2.81,1.89Zm-38.44-63.71a7.88,7.88,0,0,1,3.17-2,7.52,7.52,0,0,1,1.85-.38l3.42-30.63L1807.45,2060a8.05,8.05,0,0,1-.78,1.24Zm-64.22-63.28L1881,2018l-.07-.18a8,8,0,0,1,5-10.15,8.32,8.32,0,0,1,1-.26l-19.78-183.79a8,8,0,0,1-1.62,0l-62,225.43A8,8,0,0,1,1807.51,2052.86ZM1870,1808.5l34-61.6L1842.46,1716a8,8,0,0,1-4.78,5.32l27.63,86.41A8,8,0,0,1,1870,1808.5Zm-42.25-268.72a7.94,7.94,0,0,1,2.71-1.57,8.07,8.07,0,0,1,3.69-.34l11.75-49.41-103.59-32.61a8.08,8.08,0,0,1-1.09,2.05Zm7.84-1.56a8,8,0,0,1,5,5,8.1,8.1,0,0,1,.27,1L1975.27,1531a7.64,7.64,0,0,1,.18-1.73l-128.17-40.35Zm139.86-5.77-28.44,2.81-106,10.48a8,8,0,0,1-2.62,6l60,79.89,79.19-95a7.91,7.91,0,0,1-1.91-3.07A8.24,8.24,0,0,1,1975.42,1532.45Zm-76.1,100.36,34.88,46.41a7.81,7.81,0,0,1,5.69-1.16l40.45-139.68a8,8,0,0,1-1.6-.86Zm42,45.63a8.22,8.22,0,0,1,2.19,1.25l59.67-62.12-18.78-78.72a8,8,0,0,1-2.64-.06Zm3.25,2.27a7.88,7.88,0,0,1,1.53,2.66,8,8,0,0,1-2,8.27l104.58,123a7.9,7.9,0,0,1,1.33-.76l-46.45-194.62Zm101.16,143.07a8,8,0,0,1-.4-2.08l-171-5.31a8,8,0,0,1-.77,2.76l112.79,79.76,61.25-72.12A8,8,0,0,1,2045.73,1823.78Zm-151.5,185.86a7.92,7.92,0,0,1,1.58,2.33l161.29-54.76a7.94,7.94,0,0,1,.85-5.85l-71.36-50.46Zm163.34-51-161.28,54.76a8,8,0,0,1-.16,4.29l115.77,49.1,48.93-104.51A8,8,0,0,1,2057.57,1958.61ZM1993.26,2110a8,8,0,0,1,4.3,6.11l112.74-3.93a8.08,8.08,0,0,1,.37-2l-98-41.58Zm117.09,3.66-44.47,1.57-68.27,2.4a8.24,8.24,0,0,1-.2,1.32l89.09,29.86,26.06-30.59a8.11,8.11,0,0,1-1.85-3A8.49,8.49,0,0,1,2110.35,2113.7ZM2088,2149.36l129,43.23a8.31,8.31,0,0,1,.59-1.05l-64.5-50.61-29-22.75a8,8,0,0,1-10.41,1Zm37.86-39.25a8,8,0,0,1-.86,6.9l93.52,73.37a7.76,7.76,0,0,1,.73-.66l-73.63-111.13-28.45,26.17A8,8,0,0,1,2125.87,2110.11Zm-67.53,233.25a7.93,7.93,0,0,1,.07,4.91l119,49-113.65-61.58-6.51,5.62A7.87,7.87,0,0,1,2058.34,2343.36Zm-10.15-5a8,8,0,0,1,8.12,1.81l6.08-5.26-83.06-45,65.58,50.59A7.92,7.92,0,0,1,2048.19,2338.35Zm-75.75,79.55a8.05,8.05,0,0,1,4.36,1.79l67.43-68.17a8,8,0,0,1-1.45-2.57,7.79,7.79,0,0,1-.39-1.87l-70.22-.36Zm-.07-72.82,70.23.36a8,8,0,0,1,1.2-3.5l-66.54-51.33a8,8,0,0,1-3.29,2.12,7.23,7.23,0,0,1-1.8.38ZM1988,2125a8.08,8.08,0,0,1-4.17-2.28l-71.78,57.49,56.17,97.39a7.28,7.28,0,0,1,.77-.31,8.16,8.16,0,0,1,2.69-.42Zm-21.63,294.46a8.06,8.06,0,0,1,2.95-1.8,8.35,8.35,0,0,1,1.81-.38l-.28-71.2-83.26-.43a8.05,8.05,0,0,1-1.49,4.13ZM1885.89,2340l68-44.47-75.11,41.8A8,8,0,0,1,1885.89,2340Zm-13.65,7.68a8,8,0,0,1,1.47-7.54L1788,2387.86Zm-98.48,46.39,190.53-106c-.1-.21-.18-.43-.26-.65a8,8,0,0,1-.07-4.9L1852,2236.75a8,8,0,0,1-9.81,3.82l-70.93,151A8,8,0,0,1,1773.76,2394.11Zm-12.06-1.73A7.95,7.95,0,0,1,1770,2391l70.92-151a7.39,7.39,0,0,1-1.37-1l-122.69,110.92Zm-84.35-3.55a7.91,7.91,0,0,1,.43,2.42l81.3,6a8,8,0,0,1,1.61-3.8l-45-42.61-39.55,35.76A8,8,0,0,1,1677.35,2388.83Zm-2.16-3.32,39.47-35.68L1642,2281a8,8,0,0,1-2.43,1.35l28.73,101.2A8,8,0,0,1,1675.19,2385.51Zm-202.84,165.91a8,8,0,0,1,.24.93l181.68-21a8,8,0,0,1,3.6-6.86l-80.76-151.36L1469.58,2547.6A8,8,0,0,1,1472.35,2551.42Zm57.22-266.49a8,8,0,0,1-4,.29l-58.31,261.17a7.31,7.31,0,0,1,1.09.44l108-175.25L1530,2284.77Zm99.86-7.6a8,8,0,0,1-.36-1.5l-94.08,1.68a8,8,0,0,1-3.69,6.58l45.9,86,54.88-89.06A8,8,0,0,1,1629.43,2277.33Zm7.32,5.42a7.9,7.9,0,0,1-3.42-.89L1578,2371.64l81.16,152.11.52-.2a8.1,8.1,0,0,1,1-.27Zm25.3,238.72,6.56-122.16a8,8,0,0,1-1.72-15.36l-28.62-100.8Zm25-474.31a7.89,7.89,0,0,1-5.37,1.4L1639,2267a8,8,0,0,1,4.32,2.85l150.73-95.95Zm2.5-2.82a8.33,8.33,0,0,1-1.37,1.87l107.14,126.91,75.06-47.77a7.8,7.8,0,0,1-.53-6Zm103.2,14.58a7.82,7.82,0,0,1-.41-2.89l-102.07-13.64c0,.2-.1.39-.16.59l180.31,75a6.58,6.58,0,0,1,.4-.67l-65.14-55a8,8,0,0,1-12.93-3.38Zm5.71-10.35a8,8,0,0,1,3.64,0l62-225.26a8,8,0,0,1-5.28-5.09,7.84,7.84,0,0,1-.37-3.44l-121-24.75a8,8,0,0,1-4.93,5.2Zm-75.35-265.29a7.89,7.89,0,0,1,4.09-3.16,8,8,0,0,1,8.66,2.39l11.57-8.14-119.29-42.17Zm25.81-10,78.89-55.49a8.42,8.42,0,0,1-.63-1.4,7.58,7.58,0,0,1-.32-1.31l-199.53,13.38a8.58,8.58,0,0,1-.24,1.75Zm-122-47.6a7.7,7.7,0,0,1,.32,1.3l199.53-13.37a8.06,8.06,0,0,1,1.94-5l-83.54-86.84-119.29,101.89A7.84,7.84,0,0,1,1626.9,1725.73Zm62.46-158.1a7.89,7.89,0,0,1-4.85.09L1623,1721.19a7.73,7.73,0,0,1,1.93,1.38l119.23-101.84-52.35-54.42A7.88,7.88,0,0,1,1689.36,1567.63Zm48-106.89a8,8,0,0,1-5.16,0l-41.44,92.37a7.94,7.94,0,0,1,3.65,4.39,7.84,7.84,0,0,1,.27,1.06L1825,1545.83a8.09,8.09,0,0,1,1.71-5l-86.5-81.85A8,8,0,0,1,1737.32,1460.74Zm134.52-111.81-39.95-26.29-92.15,124.28a8.63,8.63,0,0,1,.77.71l131.42-91a8.2,8.2,0,0,1-.61-1.35A8,8,0,0,1,1871.84,1348.93Zm.93,8.9-131.33,91a7.92,7.92,0,0,1,.88,1.8,8.12,8.12,0,0,1,.33,3.83l103.56,32.6,30.13-126.75A8.06,8.06,0,0,1,1872.77,1357.83Zm9.51,2.11q-.39.18-.81.33a8,8,0,0,1-3.7.34l-30.15,126.85,128.27,40.38a8,8,0,0,1,2.71-3.41Zm3.2-2.71a7.94,7.94,0,0,1-1.92,2l96.32,164.5a5.73,5.73,0,0,1,.81-.33,8,8,0,0,1,10,4.72L2118,1492.42a7.93,7.93,0,0,1,.56-4.68Zm232.88,136.61-127.23,35.66a8,8,0,0,1-5.29,9h0l18.57,77.79,115.37-120.09A7.93,7.93,0,0,1,2118.36,1493.84Zm4.94,4.73a8.27,8.27,0,0,1-2.46-1.33l-116,120.77,45.92,192.4Zm-70.05,330.63a8,8,0,0,1-4.53-1.45l-61.17,72,71.25,50.38a8.07,8.07,0,0,1,3.5-2.38,9.62,9.62,0,0,1,1.15-.28Zm8.92,133.68-48.91,104.45,98,41.56a8,8,0,0,1,3.78-3.52l-48.29-142.24A8,8,0,0,1,2062.17,1962.88Zm6-.22,47.92,141.13,28.76-26.45-76.15-114.94Zm3.81-3.57a8,8,0,0,1-2.05,2.49l76,114.75,64.7-59.51Zm139.39,59.08-64.59,59.41,73.75,111.32a7.77,7.77,0,0,1,1.21-.53,7.56,7.56,0,0,1,1.29-.31Zm1.59,1.58,11.54,168.2a8,8,0,0,1,4.64,14.37l106.18,39.25a7.92,7.92,0,0,1,2.62-3.1Z"/><circle cx="1726.67" cy="1252.58" r="7.5"/><circle cx="1897.67" cy="1232.58" r="9.5"/></g><g id="geometria_sombra_direita" data-name="geometria sombra direita" class="cls-4"><path d="M23,1221.41a.13.13,0,0,0,0-.06l155.18-17a9.16,9.16,0,0,0,.05,1.48L27,1222.4l-3.57.3A9.63,9.63,0,0,0,23,1221.41Z"/><path d="M-16.16,1218.94l22.65,2.42a10.22,10.22,0,0,0-.18,1.46l-22.51-2.4C-16.18,1219.92-16.16,1219.43-16.16,1218.94Z"/><path d="M-432.87,203.48a8,8,0,0,1,10.15,5,7.92,7.92,0,0,1,.15,4.64l107.31,39.67a6.44,6.44,0,0,1,.61-.24,7.94,7.94,0,0,1,3.14-.41l31.68-191.54a8,8,0,0,1-5.55-5.17,8,8,0,0,1,5-10.15,8,8,0,0,1,10.14,5,7.86,7.86,0,0,1,.07,4.91l124.5,51.23a8,8,0,0,1,4.51-3.87,8,8,0,0,1,7.65,1.4L-66.08,35.8a8.06,8.06,0,0,1-1.45-2.56,8,8,0,0,1,5-10.15,8,8,0,0,1,10.15,5,8,8,0,0,1-1.08,7.23L26.81,105a8,8,0,0,1,12.56,2l98.22-46.8a8,8,0,0,1,15.18-5.06,8.68,8.68,0,0,1,.41,2.21l81.34,6a8,8,0,0,1,5.32-6.25,8.16,8.16,0,0,1,2.26-.41l6.66-123.82a8,8,0,0,1-6.41-5.34,8,8,0,0,1,5-10.15,8,8,0,0,1,10.15,5c.1.31.18.62.25.93l181.67-21a8,8,0,0,1,5.43-7.76,8,8,0,0,1,10.15,5,8,8,0,0,1-5,10.15,8,8,0,0,1-3.58.35L388.07,171.26a8,8,0,1,1-10.45,10,7.24,7.24,0,0,1-.31-1.26l-94.14,1.68a8,8,0,0,1-5.41,7.17,7.89,7.89,0,0,1-3.13.41L232,407.8a8,8,0,1,1-9.83,10.25,8.09,8.09,0,0,1-.41-2.9L119.67,401.51a8,8,0,0,1-5.22,5.79l.71-.18,66,253.37a8,8,0,0,1,8.65,11l96.42,51.86a7.91,7.91,0,0,1,4.08-3.16,8,8,0,0,1,5.15,15.15,7.89,7.89,0,0,1-4.85.09L229.05,888.91a8,8,0,0,1-6.23,14.68L181.38,996a8,8,0,0,1-1.36,14.54,7.91,7.91,0,0,1-1.34.32L186.82,1196c-.49,0-1-.07-1.48-.07l-8.13-185a8,8,0,0,1-3.52-.93L81.54,1134.25l98.14,64.58a.42.42,0,0,0,0,.12v0a3.18,3.18,0,0,0-.61,1.2l-98.38-64.74-60.27,81.28a9.48,9.48,0,0,0-1.27-.76l60.3-81.33-39.88-26.25a8,8,0,0,1-6.73,3l-16,103.76a11.88,11.88,0,0,0-1.45-.25l16-103.74c-.32-.08-.64-.18-1-.29l-50.22,100.87a3.25,3.25,0,0,0-.5-.19c-.3-.1-.59-.22-.89-.33l50.29-101a8,8,0,0,1-3.09-10L-207,969.63a7.9,7.9,0,0,1-4,3,8,8,0,0,1-10.15-5,8,8,0,0,1,5-10.15,7.94,7.94,0,0,1,3.66-.34l73.19-314.5a8,8,0,0,1-9.33-5.23,8,8,0,0,1,5-10.15,8.07,8.07,0,0,1,1.15-.29l-10.2-118.29a8,8,0,0,1-7.52-5.42,8,8,0,0,1-.06-4.95l-138.63-57.71.14,2-1.48-2.58-.83-.35.42-.38L-427,218.34a6,6,0,0,1-.74.29,8,8,0,0,1-10.14-5A8,8,0,0,1-432.87,203.48ZM-271.16,57.31a7.88,7.88,0,0,1-4.07,3.13,7.94,7.94,0,0,1-3.14.41L-310,252.4a8,8,0,0,1,3.51,2l153.76-132.91ZM165.49,835.24,82,748.46a7.9,7.9,0,0,1-2.42,1.33c-.19.07-.38.11-.57.16l.46,152.37a8,8,0,0,1,4.86,2.24ZM85.72,905.68a7.55,7.55,0,0,1,1,2,7.88,7.88,0,0,1,.28,1.06L217.4,896.06a8,8,0,0,1,1.95-5.26l-52.41-54.49Zm88.77-238.17L56.15,643.3l106.91,37.8,12.43-8.74a7.47,7.47,0,0,1-.63-1.41A7.83,7.83,0,0,1,174.49,667.51ZM53.09,643.79A8,8,0,0,1,48.4,648l-.08,0,27.61,86.33a8,8,0,0,1,7.6,2.66l78.05-54.88Zm216-467.67-72.68-68.88-122.78,111a8,8,0,0,1,1.17,2.22c0,.09,0,.18.08.27L267.23,182A8,8,0,0,1,269.12,176.12Zm-1.51,7.77c0-.14-.08-.27-.11-.41L75.2,222.18A8,8,0,0,1,73,228.64L117.17,281,268.07,185A9.31,9.31,0,0,1,267.61,183.89ZM71.82,229.59a7.89,7.89,0,0,1-6.09,1.29L37.66,327A8,8,0,0,1,41,329.48l74.89-47.66ZM59.6,220.7-52.33,174.91a8,8,0,0,1-2.47,2.83L1.27,274.93l59.31-47.5a8.23,8.23,0,0,1-.91-1.83A8,8,0,0,1,59.6,220.7ZM25.37,115.12a8.08,8.08,0,0,1-.68-1.49,8.53,8.53,0,0,1-.37-1.63l-83.3-.43.2,52a8,8,0,0,1,5.55,3Zm-92.13,52.95-84.64-45.86L-305.57,255.48a8.7,8.7,0,0,1,.68,1.15l.5.19,237.22-83.66A8,8,0,0,1-66.76,168.07Zm-237.52,90.27a7.91,7.91,0,0,1-.05,3.75l129.54,43.42L-65.14,176.79a8,8,0,0,1-1.54-2.23Zm131,47.67,88.53,29.68A8,8,0,0,1-80,331.34a8.16,8.16,0,0,1,2.69-.42L-61,179.05a8,8,0,0,1-3-1.3Zm93.58,40.57L-99.08,388,16.64,437.06a8.55,8.55,0,0,1,.91-1.34l-89.9-90.63a8,8,0,0,1-2.51,1.4A7.94,7.94,0,0,1-79.7,346.58Zm98.32,88.08a7.83,7.83,0,0,1,5.21-1.8L30.42,374-70.07,342a8.32,8.32,0,0,1-1,1.69ZM74.3,749.56a8,8,0,0,1-2.55-1.73L2.06,764.21-18.41,769A8,8,0,0,1-20.84,776L13.84,822.1ZM14.35,823.32l60.24,80.16a8,8,0,0,1,1.62-.77,8.35,8.35,0,0,1,1.81-.38l-.45-152.14a7.72,7.72,0,0,1-2.15-.15Zm-33.11-55.75h0l89.48-21a8.21,8.21,0,0,1-.86-1.76,8.09,8.09,0,0,1-.41-3.17L7.54,710.47l-29.29,53.12A7.93,7.93,0,0,1-18.76,767.57Zm25-57.76-140.55-70.7a8.25,8.25,0,0,1-1.07,1.35l104.6,123a8.37,8.37,0,0,1,1.89-1,8,8,0,0,1,5.88.3Zm.71-1.29,34-61.73A8,8,0,0,1,38.25,643a7.54,7.54,0,0,1-.38-1.84l-15-.47-156.08-4.84a8.41,8.41,0,0,1-.49,1.93Zm36.33-75.66.34-.09L31.41,519.54,23.8,448.85a8,8,0,0,1-4.71-1.46L-73.19,556l112.6,79.63A8,8,0,0,1,43.26,632.86ZM104.2,397.49l-72.35-23L25.3,433a8,8,0,0,1,5.26,3.75l73.61-34.94A7.9,7.9,0,0,1,104.2,397.49ZM34,342.34A8,8,0,0,1,27.14,337a8.07,8.07,0,0,1-.29-1.15l-96.31,2.62a7.78,7.78,0,0,1-.17,2.21L30.58,372.51Zm-103.82-6c.07.2.12.4.17.6l96.41-2.62a8,8,0,0,1,3.37-6.47L.85,277.16l-71.61,57.36A7.53,7.53,0,0,1-69.86,336.34ZM2,276.23l29.35,50.88c.25-.11.51-.21.77-.3a7.89,7.89,0,0,1,4.1-.28l28.07-96.07a7.9,7.9,0,0,1-2.81-1.88Zm38.44,63.71a8,8,0,0,1-3.17,2,7.52,7.52,0,0,1-1.85.38L32,373l72.72,23.14a7.6,7.6,0,0,1,.78-1.24Zm64.22,63.28L31.19,438.1l.07.18a8,8,0,0,1-5,10.15,6.71,6.71,0,0,1-1,.25l19.78,183.8a8,8,0,0,1,1.62,0l62-225.43A8,8,0,0,1,104.68,403.22ZM42.22,647.58l-34,61.6L69.73,740.1a8,8,0,0,1,4.78-5.32L46.88,648.37A8,8,0,0,1,42.22,647.58ZM84.47,916.3a7.91,7.91,0,0,1-6.4,1.9L66.32,967.62l103.59,32.61a8.08,8.08,0,0,1,1.09-2.05Zm-7.84,1.56a8,8,0,0,1-5-5,8.1,8.1,0,0,1-.27-1.05L-63.08,925.1a7.76,7.76,0,0,1-.18,1.73L64.91,967.18Zm-139.86,5.77,28.44-2.82,106-10.47a8.05,8.05,0,0,1,2.62-6l-60-79.88-79.19,95a7.83,7.83,0,0,1,1.91,3.07A7.84,7.84,0,0,1-63.23,923.63Zm76.1-100.36L-22,776.86a7.91,7.91,0,0,1-1.75.86,8,8,0,0,1-3.94.3L-68.15,917.7a7.48,7.48,0,0,1,1.6.86Zm-42-45.64a7.93,7.93,0,0,1-2.19-1.24L-91,838.51l18.78,78.72a8,8,0,0,1,2.64.06Zm-3.25-2.26a7.88,7.88,0,0,1-1.53-2.66,8,8,0,0,1,2-8.27l-104.58-123a8.65,8.65,0,0,1-1.33.76L-91.4,836.8ZM-133.54,632.3a8,8,0,0,1,.4,2.08l171,5.31a8,8,0,0,1,.77-2.76L-74.15,557.17l-61.25,72.12A8,8,0,0,1-133.54,632.3ZM18,446.44a8.06,8.06,0,0,1-1.58-2.33l-161.29,54.76a7.94,7.94,0,0,1-.85,5.85l71.36,50.46Zm-163.34,51L15.9,442.71a8,8,0,0,1,.16-4.29l-115.77-49.1-48.93,104.51A8,8,0,0,1-145.38,497.47ZM-81.07,346A8,8,0,0,1-85,341.49a8,8,0,0,1-.36-1.56l-112.74,3.93a8.08,8.08,0,0,1-.37,2l98,41.58Zm-117.09-3.66,44.47-1.57,68.27-2.41a8.29,8.29,0,0,1,.2-1.31l-89.09-29.86-26.06,30.59a8.11,8.11,0,0,1,1.85,3A8.49,8.49,0,0,1-198.16,342.38Zm22.34-35.66-129-43.24a8.43,8.43,0,0,1-.59,1.06l64.5,50.61,29,22.75a8.12,8.12,0,0,1,3.24-2.08,8,8,0,0,1,7.17,1ZM-213.68,346a8,8,0,0,1,.86-6.9l-93.52-73.37a7.76,7.76,0,0,1-.73.66l73.63,111.13L-205,351.32A8,8,0,0,1-213.68,346Zm67.53-233.25a8,8,0,0,1-.07-4.92l-119-49,113.65,61.59,6.51-5.62A7.87,7.87,0,0,1-146.15,112.72Zm10.15,5a8,8,0,0,1-8.12-1.81l-6.08,5.26,83.06,45-65.58-50.59A8,8,0,0,1-136,117.73Zm75.75-79.55a8.05,8.05,0,0,1-4.36-1.79L-132,104.56a8.06,8.06,0,0,1,1.45,2.56,7.87,7.87,0,0,1,.39,1.88l70.22.36Zm.07,72.82-70.23-.36a8,8,0,0,1-1.2,3.5l66.54,51.33a8,8,0,0,1,3.29-2.12A7.23,7.23,0,0,1-60,163ZM-75.85,331.08a8.08,8.08,0,0,1,4.17,2.28L.1,275.86l-56.17-97.38a7.28,7.28,0,0,1-.77.31,8.16,8.16,0,0,1-2.69.42ZM-54.22,36.62a8.06,8.06,0,0,1-3,1.8A8.35,8.35,0,0,1-59,38.8l.28,71.2,83.26.43a8.05,8.05,0,0,1,1.49-4.13ZM26.3,116l-68,44.47,75.11-41.8A8,8,0,0,1,26.3,116ZM40,108.35a8,8,0,0,1-1.47,7.54l85.68-47.67ZM138.43,62-52.1,168c.1.21.18.43.26.65a8,8,0,0,1,.07,4.9L60.16,219.33A8,8,0,0,1,70,215.51l70.93-151A8,8,0,0,1,138.43,62Zm12.06,1.73a7.8,7.8,0,0,1-2.73,1.58,7.92,7.92,0,0,1-5.54-.15l-70.92,151a7.39,7.39,0,0,1,1.37,1L195.36,106.22Zm84.35,3.55a7.91,7.91,0,0,1-.43-2.42l-81.3-6a8,8,0,0,1-1.61,3.8l45,42.61L236,69.47A8.11,8.11,0,0,1,234.84,67.25ZM237,70.57l-39.47,35.68,72.65,68.84a8,8,0,0,1,2.43-1.35L243.88,72.54A8,8,0,0,1,237,70.57ZM439.84-95.35a7.32,7.32,0,0,1-.24-.92l-181.68,21a8,8,0,0,1-3.6,6.86L335.08,83,442.61-91.52A8,8,0,0,1,439.84-95.35Zm-57.22,266.5a8,8,0,0,1,4-.29L445-90.31a7.31,7.31,0,0,1-1.09-.44L335.88,84.5l46.33,86.81Zm-99.86,7.59a8.27,8.27,0,0,1,.36,1.51l94.08-1.68a8,8,0,0,1,3.69-6.58L335,86,280.11,175A8,8,0,0,1,282.76,178.74Zm-7.32-5.41a7.76,7.76,0,0,1,3.42.89l55.32-89.78L253-67.68a4.71,4.71,0,0,1-.52.21,8.1,8.1,0,0,1-1.05.27ZM250.14-65.39,243.58,56.77a8,8,0,0,1,1.72,15.36l28.62,100.8Zm-25,474.31a7.89,7.89,0,0,1,5.37-1.4l42.66-218.46a8,8,0,0,1-4.32-2.85l-150.73,96Zm-2.5,2.82a8.33,8.33,0,0,1,1.37-1.87L116.88,283,41.82,330.73a7.8,7.8,0,0,1,.53,6Zm-103.2-14.59a7.87,7.87,0,0,1,.41,2.9l102.07,13.64c0-.2.1-.39.16-.59l-180.31-75a6.58,6.58,0,0,1-.4.67l65.14,55a8,8,0,0,1,12.93,3.37Zm-5.71,10.36a8,8,0,0,1-3.64,0l-62,225.26a8,8,0,0,1,5.28,5.09,7.83,7.83,0,0,1,.37,3.44l121,24.75a8,8,0,0,1,4.93-5.2ZM189.09,672.8a8,8,0,0,1-12.75.76l-11.57,8.15,119.29,42.17Zm-25.81,10L84.39,738.24a8.07,8.07,0,0,1,.63,1.4,7.58,7.58,0,0,1,.32,1.31l199.53-13.38a8.58,8.58,0,0,1,.24-1.75Zm122,47.6a7.7,7.7,0,0,1-.32-1.3L85.44,742.42a8.06,8.06,0,0,1-1.94,5L167,834.28,286.33,732.39A7.84,7.84,0,0,1,285.29,730.35ZM222.83,888.44a8,8,0,0,1,4.85-.08l61.54-153.47a7.73,7.73,0,0,1-1.93-1.38L168.06,835.35l52.35,54.42A8.12,8.12,0,0,1,222.83,888.44Zm-48,106.9a8,8,0,0,1,5.16,0L221.47,903a7.94,7.94,0,0,1-3.65-4.39,8.24,8.24,0,0,1-.27-1.06L87.19,910.25a8.09,8.09,0,0,1-1.71,5L172,997.08A8,8,0,0,1,174.87,995.34ZM40.35,1107.14l39.95,26.3,92.15-124.28a8.63,8.63,0,0,1-.77-.71l-131.42,91a7.51,7.51,0,0,1,.61,1.35A8,8,0,0,1,40.35,1107.14Zm-.93-8.89,131.33-91a7.92,7.92,0,0,1-.88-1.8,8.12,8.12,0,0,1-.33-3.83L66,969.06,35.85,1095.81A8,8,0,0,1,39.42,1098.25Zm-9.51-2.11a7.22,7.22,0,0,1,.81-.33,8,8,0,0,1,3.7-.34L64.57,968.62-63.7,928.24a8,8,0,0,1-2.71,3.41Zm-3.2,2.71a8.16,8.16,0,0,1,1.92-2L-67.69,932.39a7.22,7.22,0,0,1-.81.33,8,8,0,0,1-10-4.72l-127.23,35.66a7.93,7.93,0,0,1-.56,4.68ZM-206.17,962.24l127.23-35.66a8,8,0,0,1,5.29-9h0l-18.57-77.8L-207.58,959.86A8.1,8.1,0,0,1-206.17,962.24Zm-4.94-4.73a8.27,8.27,0,0,1,2.46,1.33l116-120.77-45.92-192.4Zm70.05-330.63a8,8,0,0,1,4.53,1.45l61.17-72-71.25-50.38a8.06,8.06,0,0,1-3.5,2.37,8.07,8.07,0,0,1-1.15.29ZM-150,493.2l48.91-104.45-98-41.56a8,8,0,0,1-3.78,3.52L-154.55,493A8,8,0,0,1-150,493.2Zm-6,.23-47.92-141.14-28.76,26.45,76.16,114.94Zm-3.81,3.56a8,8,0,0,1,2.05-2.49l-76-114.75-64.7,59.51Zm-139.39-59.08,64.59-59.41L-308.3,267.18a7.77,7.77,0,0,1-1.21.53,7.56,7.56,0,0,1-1.29.31Zm-1.59-1.58-11.54-168.2a8,8,0,0,1-7.39-5.42,8,8,0,0,1,2.75-8.95l-106.18-39.25a8,8,0,0,1-2.62,3.1Z"/><circle cx="185.52" cy="1203.5" r="7.5"/><circle cx="14.52" cy="1223.5" r="9.5"/><path d="M23,1248.67a.13.13,0,0,1,0,.06l155.18,17a9.16,9.16,0,0,1,.05-1.48L27,1247.68l-3.57-.3A9.63,9.63,0,0,1,23,1248.67Z"/><path d="M-16.16,1251.14l22.65-2.42a10.22,10.22,0,0,1-.18-1.46l-22.51,2.4C-16.18,1250.16-16.16,1250.65-16.16,1251.14Z"/><path d="M-432.87,2266.6a8,8,0,0,0,10.15-5,7.92,7.92,0,0,0,.15-4.64l107.31-39.67a6.44,6.44,0,0,0,.61.24,7.94,7.94,0,0,0,3.14.41l31.68,191.54a8,8,0,0,0-5.55,5.17,8,8,0,0,0,5,10.15,8,8,0,0,0,10.14-5,7.86,7.86,0,0,0,.07-4.91l124.5-51.23a8,8,0,0,0,4.51,3.87,8,8,0,0,0,7.65-1.4l67.42,68.17a7.85,7.85,0,0,0-1.45,2.56,8,8,0,0,0,5,10.15,8,8,0,0,0,10.15-5,8,8,0,0,0-1.08-7.23l80.27-69.69a8,8,0,0,0,12.56-2l98.22,46.81a8,8,0,0,0,15.18,5.05,8.53,8.53,0,0,0,.41-2.2l81.34-6a8,8,0,0,0,5.32,6.26,8.16,8.16,0,0,0,2.26.41l6.66,123.82a8,8,0,1,0,8.74,10.49c.1-.31.18-.62.25-.93l181.67,21a8,8,0,1,0,10.57-7.39,7.87,7.87,0,0,0-3.58-.35l-58.34-261.26a8,8,0,1,0-10.45-10,7.24,7.24,0,0,0-.31,1.26l-94.14-1.69a8,8,0,0,0-5.41-7.16,7.89,7.89,0,0,0-3.13-.41L232,2062.28a8,8,0,1,0-9.83-10.25,8.09,8.09,0,0,0-.41,2.9l-102.06,13.64a8,8,0,0,0-5.22-5.79l.71.18,66-253.37a8,8,0,0,0,8.65-11l96.42-51.86a7.91,7.91,0,0,0,4.08,3.16,8,8,0,1,0,.3-15.24l-61.54-153.47a8,8,0,0,0-6.23-14.68l-41.44-92.37a8,8,0,0,0-2.7-14.85l8.14-185.18c-.49,0-1,.06-1.48.07l-8.13,185a8.1,8.1,0,0,0-3.52.94L81.54,1335.83l98.14-64.58a.53.53,0,0,1,0-.12v0a3.18,3.18,0,0,1-.61-1.2l-98.38,64.74-60.27-81.28a10.66,10.66,0,0,1-1.27.76l60.3,81.33L39.54,1361.7a8,8,0,0,0-6.73-3L16.78,1255a14.17,14.17,0,0,1-1.45.25l16,103.74a8,8,0,0,0-1,.29l-50.22-100.87a3.25,3.25,0,0,1-.5.19c-.3.1-.59.22-.89.33l50.29,101a8,8,0,0,0-3.09,10l-233,130.51a7.9,7.9,0,0,0-4-3,8,8,0,0,0-10.15,5,8,8,0,0,0,5,10.15,7.94,7.94,0,0,0,3.66.34l73.19,314.5a8,8,0,0,0-9.33,5.23,8,8,0,0,0,5,10.15,8.07,8.07,0,0,0,1.15.29l-10.2,118.29a8,8,0,0,0-7.52,5.42,8,8,0,0,0-.06,5l-138.63,57.71.14-2-1.48,2.58-.83.35.42.38-126.29,221c-.24-.11-.48-.21-.74-.3a8,8,0,0,0-10.14,5A8,8,0,0,0-432.87,2266.6Zm161.71,146.17a7.9,7.9,0,0,0-4.07-3.14,7.93,7.93,0,0,0-3.14-.4L-310,2217.68a8,8,0,0,0,3.51-2l153.76,132.91Zm436.65-777.94L82,1721.62a7.7,7.7,0,0,0-2.42-1.33,4,4,0,0,0-.57-.16l.46-152.37a8,8,0,0,0,4.86-2.24ZM85.72,1564.4a7.55,7.55,0,0,0,1-2,8.3,8.3,0,0,0,.28-1.06L217.4,1574a8,8,0,0,0,1.95,5.26l-52.41,54.49Zm88.77,238.17-118.34,24.2L163.06,1789l12.43,8.74a7.47,7.47,0,0,0-.63,1.41A7.83,7.83,0,0,0,174.49,1802.57Zm-121.4,23.72a8,8,0,0,0-4.69-4.23l-.08,0,27.61-86.33a8,8,0,0,0,7.6-2.66l78.05,54.88Zm216,467.67-72.68,68.88-122.78-111a8,8,0,0,0,1.17-2.22c0-.09,0-.18.08-.28l192.32,38.71A8,8,0,0,0,269.12,2294Zm-1.51-7.77c0,.13-.08.27-.11.41L75.2,2247.9a8,8,0,0,0-2.25-6.46l44.22-52.38,150.9,96.06A8.61,8.61,0,0,0,267.61,2286.19Zm-195.79-45.7a7.89,7.89,0,0,0-6.09-1.29l-28.07-96.07A8,8,0,0,0,41,2140.6l74.89,47.66Zm-12.22,8.89-111.93,45.79a8,8,0,0,0-2.47-2.83l56.07-97.19,59.31,47.5a8.23,8.23,0,0,0-.91,1.83A8,8,0,0,0,59.6,2249.38ZM25.37,2355a8.08,8.08,0,0,0-.68,1.49,8.53,8.53,0,0,0-.37,1.63l-83.3.43.2-52a8.05,8.05,0,0,0,5.55-3ZM-66.76,2302l-84.64,45.86L-305.57,2214.6a9.4,9.4,0,0,0,.68-1.15l.5-.19,237.22,83.65A8,8,0,0,0-66.76,2302Zm-237.52-90.27a7.91,7.91,0,0,0-.05-3.75l129.54-43.42,109.65,128.72a7.85,7.85,0,0,0-1.54,2.23Zm131-47.68,88.53-29.67a8,8,0,0,0,4.74,4.35,8.16,8.16,0,0,0,2.69.42L-61,2291a8,8,0,0,0-3,1.3Zm93.58-40.57-19.38-41.4L16.64,2033a8.55,8.55,0,0,0,.91,1.34L-72.35,2125a8,8,0,0,0-2.51-1.4A7.94,7.94,0,0,0-79.7,2123.49Zm98.32-88.07a7.83,7.83,0,0,0,5.21,1.8l6.59,58.85-100.49,32a8.32,8.32,0,0,0-1-1.69Zm55.68-314.9a8,8,0,0,0-2.55,1.73L2.06,1705.87l-20.47-4.81a8,8,0,0,0-2.43-6.93L13.84,1648Zm-59.95-73.76,60.24-80.16a8,8,0,0,0,1.62.77,8.35,8.35,0,0,0,1.81.38l-.45,152.14a7.72,7.72,0,0,0-2.15.15Zm-33.11,55.75h0l89.48,21a8,8,0,0,0-.86,1.76,8.09,8.09,0,0,0-.41,3.17L7.54,1759.6l-29.29-53.11A7.93,7.93,0,0,0-18.76,1702.51Zm25,57.76L-134.33,1831a8.62,8.62,0,0,0-1.07-1.34l104.6-123a8.37,8.37,0,0,0,1.89,1,8,8,0,0,0,5.88-.3Zm.71,1.29,34,61.73a8,8,0,0,0-2.71,3.78,7.44,7.44,0,0,0-.38,1.84l-15,.46-156.08,4.85a8.28,8.28,0,0,0-.49-1.93Zm36.33,75.66.34.09L31.41,1950.54l-7.61,70.69a8,8,0,0,0-4.71,1.46L-73.19,1914l112.6-79.63A8,8,0,0,0,43.26,1837.22Zm60.94,235.37-72.35,23-6.55-58.55a8,8,0,0,0,5.26-3.75l73.61,34.94A7.9,7.9,0,0,0,104.2,2072.59ZM34,2127.74a8,8,0,0,0-6.82,5.38,8.55,8.55,0,0,0-.29,1.16l-96.31-2.62a7.78,7.78,0,0,0-.17-2.21l100.21-31.88Zm-103.82,6a6.09,6.09,0,0,0,.17-.61l96.41,2.63a8,8,0,0,0,3.37,6.47L.85,2192.92l-71.61-57.36A7.72,7.72,0,0,0-69.86,2133.74ZM2,2193.85,31.37,2143c.25.11.51.21.77.3a8,8,0,0,0,4.1.28l28.07,96.06a8.06,8.06,0,0,0-2.81,1.89Zm38.44-63.71a7.88,7.88,0,0,0-3.17-2,7.52,7.52,0,0,0-1.85-.38L32,2097.11,104.74,2074a8.05,8.05,0,0,0,.78,1.24Zm64.22-63.28L31.19,2032l.07-.18a8,8,0,0,0-5-10.15,8.32,8.32,0,0,0-1-.26L45.05,1837.6a8,8,0,0,0,1.62,0l62,225.43A8,8,0,0,0,104.68,2066.86ZM42.22,1822.5l-34-61.6L69.73,1730a8,8,0,0,0,4.78,5.32l-27.63,86.41A8,8,0,0,0,42.22,1822.5Zm42.25-268.72a7.94,7.94,0,0,0-2.71-1.57,8.07,8.07,0,0,0-3.69-.34l-11.75-49.41,103.59-32.61a8.08,8.08,0,0,0,1.09,2.05Zm-7.84-1.56a8,8,0,0,0-5,5,8.1,8.1,0,0,0-.27,1L-63.08,1545a7.64,7.64,0,0,0-.18-1.73L64.91,1502.9Zm-139.86-5.77,28.44,2.81,106,10.48a8,8,0,0,0,2.62,6l-60,79.89-79.19-95a7.91,7.91,0,0,0,1.91-3.07A8.24,8.24,0,0,0-63.23,1546.45Zm76.1,100.36L-22,1693.22a7.91,7.91,0,0,0-1.75-.86,8,8,0,0,0-3.94-.3l-40.45-139.68a8,8,0,0,0,1.6-.86Zm-42,45.63a8.22,8.22,0,0,0-2.19,1.25L-91,1631.57l18.78-78.72a8,8,0,0,0,2.64-.06Zm-3.25,2.27a7.88,7.88,0,0,0-1.53,2.66,8,8,0,0,0,2,8.27l-104.58,123a7.9,7.9,0,0,0-1.33-.76l46.45-194.62Zm-101.16,143.07a8,8,0,0,0,.4-2.08l171-5.31a8,8,0,0,0,.77,2.76l-112.79,79.76-61.25-72.12A8,8,0,0,0-133.54,1837.78ZM18,2023.64a7.92,7.92,0,0,0-1.58,2.33l-161.29-54.76a7.94,7.94,0,0,0-.85-5.85l71.36-50.46Zm-163.34-51L15.9,2027.37a8,8,0,0,0,.16,4.29l-115.77,49.1-48.93-104.51A8,8,0,0,0-145.38,1972.61ZM-81.07,2124a8,8,0,0,0-3.94,4.55,8,8,0,0,0-.36,1.56l-112.74-3.93a8.08,8.08,0,0,0-.37-2l98-41.58Zm-117.09,3.66,44.47,1.57,68.27,2.4a8.24,8.24,0,0,0,.2,1.32l-89.09,29.86-26.06-30.59a8.11,8.11,0,0,0,1.85-3A8.49,8.49,0,0,0-198.16,2127.7Zm22.34,35.66-129,43.23a8.31,8.31,0,0,0-.59-1.05l64.5-50.61,29-22.75a8,8,0,0,0,3.24,2.07,8,8,0,0,0,7.17-1Zm-37.86-39.25a8,8,0,0,0,.86,6.9l-93.52,73.37a7.76,7.76,0,0,0-.73-.66l73.63-111.13,28.45,26.17A8,8,0,0,0-213.68,2124.11Zm67.53,233.25a7.93,7.93,0,0,0-.07,4.91l-119,49,113.65-61.58,6.51,5.62A7.87,7.87,0,0,0-146.15,2357.36Zm10.15-5a8,8,0,0,0-8.12,1.81l-6.08-5.26,83.06-45-65.58,50.59A7.92,7.92,0,0,0-136,2352.35Zm75.75,79.55a8.05,8.05,0,0,0-4.36,1.79L-132,2365.52a8,8,0,0,0,1.45-2.57,7.79,7.79,0,0,0,.39-1.87l70.22-.36Zm.07-72.82-70.23.36a8,8,0,0,0-1.2-3.5l66.54-51.33a8,8,0,0,0,3.29,2.12,7.23,7.23,0,0,0,1.8.38ZM-75.85,2139a8.08,8.08,0,0,0,4.17-2.28L.1,2194.21l-56.17,97.39a7.28,7.28,0,0,0-.77-.31,8.16,8.16,0,0,0-2.69-.42Zm21.63,294.46a8.06,8.06,0,0,0-3-1.8,8.35,8.35,0,0,0-1.81-.38l.28-71.2,83.26-.43a8.05,8.05,0,0,0,1.49,4.13ZM26.3,2354l-68-44.47,75.11,41.8A8,8,0,0,0,26.3,2354ZM40,2361.72a8,8,0,0,0-1.47-7.54l85.68,47.68Zm98.48,46.39-190.53-106c.1-.21.18-.43.26-.65a8,8,0,0,0,.07-4.9l111.93-45.79a8,8,0,0,0,9.81,3.82l70.93,151A8,8,0,0,0,138.43,2408.11Zm12.06-1.73a7.95,7.95,0,0,0-8.27-1.43l-70.92-151a7.39,7.39,0,0,0,1.37-1l122.69,110.92Zm84.35-3.55a7.91,7.91,0,0,0-.43,2.42l-81.3,6a8,8,0,0,0-1.61-3.8l45-42.61L236,2400.61A8,8,0,0,0,234.84,2402.83Zm2.16-3.32-39.47-35.68L270.18,2295a8,8,0,0,0,2.43,1.35l-28.73,101.2A8,8,0,0,0,237,2399.51Zm202.84,165.91a8,8,0,0,0-.24.93l-181.68-21a8,8,0,0,0-3.6-6.86l80.76-151.36L442.61,2561.6A8,8,0,0,0,439.84,2565.42Zm-57.22-266.49a8,8,0,0,0,4,.29L445,2560.39a7.31,7.31,0,0,0-1.09.44l-108-175.25,46.33-86.81Zm-99.86-7.6a8,8,0,0,0,.36-1.5l94.08,1.68a8,8,0,0,0,3.69,6.58l-45.9,86-54.88-89.06A8,8,0,0,0,282.76,2291.33Zm-7.32,5.42a7.9,7.9,0,0,0,3.42-.89l55.32,89.78L253,2537.75l-.52-.2a8.1,8.1,0,0,0-1.05-.27Zm-25.3,238.72-6.56-122.16A8,8,0,0,0,245.3,2398l28.62-100.8Zm-25-474.31a7.89,7.89,0,0,0,5.37,1.4L273.18,2281a8,8,0,0,0-4.32,2.85l-150.73-95.95Zm-2.5-2.82a8.33,8.33,0,0,0,1.37,1.87L116.88,2187.12l-75.06-47.77a7.8,7.8,0,0,0,.53-6Zm-103.2,14.58a7.82,7.82,0,0,0,.41-2.89l102.07-13.64c0,.2.1.39.16.59L41.78,2132a6.58,6.58,0,0,0-.4-.67l65.14-55a8,8,0,0,0,12.93-3.38Zm-5.71-10.35a8,8,0,0,0-3.64,0l-62-225.26a8,8,0,0,0,5.28-5.09,7.84,7.84,0,0,0,.37-3.44l121-24.75a8,8,0,0,0,4.93,5.2Zm75.35-265.29a7.89,7.89,0,0,0-4.09-3.16,8,8,0,0,0-8.66,2.39l-11.57-8.14,119.29-42.17Zm-25.81-10-78.89-55.49a8.42,8.42,0,0,0,.63-1.4,7.58,7.58,0,0,0,.32-1.31l199.53,13.38a8.58,8.58,0,0,0,.24,1.75Zm122-47.6a7.7,7.7,0,0,0-.32,1.3L85.44,1727.66a8.06,8.06,0,0,0-1.94-5L167,1635.8l119.29,101.89A7.84,7.84,0,0,0,285.29,1739.73Zm-62.46-158.1a7.89,7.89,0,0,0,4.85.09l61.54,153.47a7.73,7.73,0,0,0-1.93,1.38L168.06,1634.73l52.35-54.42A7.88,7.88,0,0,0,222.83,1581.63Zm-48-106.89a8,8,0,0,0,5.16,0l41.44,92.37a7.94,7.94,0,0,0-3.65,4.39,7.84,7.84,0,0,0-.27,1.06L87.19,1559.83a8.09,8.09,0,0,0-1.71-5L172,1473A8,8,0,0,0,174.87,1474.74ZM40.35,1362.93l39.95-26.29,92.15,124.28a8.63,8.63,0,0,0-.77.71l-131.42-91a8.2,8.2,0,0,0,.61-1.35A8,8,0,0,0,40.35,1362.93Zm-.93,8.9,131.33,91a7.92,7.92,0,0,0-.88,1.8,8.12,8.12,0,0,0-.33,3.83L66,1501,35.85,1374.27A8.06,8.06,0,0,0,39.42,1371.83Zm-9.51,2.11q.39.18.81.33a8,8,0,0,0,3.7.34l30.15,126.85L-63.7,1541.84a8,8,0,0,0-2.71-3.41Zm-3.2-2.71a7.94,7.94,0,0,0,1.92,2l-96.32,164.5a5.73,5.73,0,0,0-.81-.33,8,8,0,0,0-10,4.72l-127.23-35.66a7.93,7.93,0,0,0-.56-4.68Zm-232.88,136.61,127.23,35.66a8,8,0,0,0,5.29,9h0l-18.57,77.79-115.37-120.09A7.93,7.93,0,0,0-206.17,1507.84Zm-4.94,4.73a8.27,8.27,0,0,0,2.46-1.33l116,120.77-45.92,192.4Zm70.05,330.63a8,8,0,0,0,4.53-1.45l61.17,72-71.25,50.38a8.07,8.07,0,0,0-3.5-2.38,9.62,9.62,0,0,0-1.15-.28ZM-150,1976.88l48.91,104.45-98,41.56a8,8,0,0,0-3.78-3.52l48.29-142.24A8,8,0,0,0-150,1976.88Zm-6-.22-47.92,141.13-28.76-26.45,76.15-114.94Zm-3.81-3.57a8,8,0,0,0,2.05,2.49l-76,114.75-64.7-59.51Zm-139.39,59.08,64.59,59.41L-308.3,2202.9a7.77,7.77,0,0,0-1.21-.53,7.56,7.56,0,0,0-1.29-.31Zm-1.59,1.58L-312.27,2202a8,8,0,0,0-7.39,5.42,8,8,0,0,0,2.75,9l-106.18,39.25a7.92,7.92,0,0,0-2.62-3.1Z"/><circle cx="185.52" cy="1266.58" r="7.5"/><circle cx="14.52" cy="1246.58" r="9.5"/></g></g></g></svg>