<svg xmlns="http://www.w3.org/2000/svg" xmlns:xlink="http://www.w3.org/1999/xlink" viewBox="0 0 96.4 94.09"><defs><style>.cls-1,.cls-5{fill:none;}.cls-2{clip-path:url(#clip-path);}.cls-3{fill:#212121;}.cls-4{fill:#00b8e9;}.cls-5{stroke:#36a9e1;stroke-miterlimit:10;stroke-width:3px;}.cls-6{fill:#36a9e1;}.cls-7{clip-path:url(#clip-path-2);}</style><clipPath id="clip-path"><ellipse class="cls-1" cx="48.2" cy="47.05" rx="48.2" ry="47.05"/></clipPath><clipPath id="clip-path-2"><ellipse class="cls-1" cx="157" cy="47.05" rx="48.2" ry="47.05"/></clipPath></defs><g id="frontend"><g id="context"><g class="cls-2"><rect class="cls-3" x="-18.23" y="-19.3" width="132.86" height="132.86"/><path class="cls-4" d="M21.86,70.8a3.42,3.42,0,0,1-1.66-.37,2.46,2.46,0,0,1-1.05-1.09,3.61,3.61,0,0,1-.37-1.72V65.29a3.68,3.68,0,0,1,.37-1.73,2.49,2.49,0,0,1,1.05-1.08,3.42,3.42,0,0,1,1.66-.38,3,3,0,0,1,1.44.35,2.86,2.86,0,0,1,1.05,1,4.51,4.51,0,0,1,.57,1.6H23.25a2.1,2.1,0,0,0-.29-.73,1.43,1.43,0,0,0-.47-.45,1.23,1.23,0,0,0-.63-.16,1.36,1.36,0,0,0-1,.41,1.69,1.69,0,0,0-.37,1.17v2.33a1.65,1.65,0,0,0,.37,1.16,1.32,1.32,0,0,0,1,.41,1.22,1.22,0,0,0,.89-.34,1.87,1.87,0,0,0,.5-1h1.67a4.34,4.34,0,0,1-.58,1.59,2.84,2.84,0,0,1-1,1A3,3,0,0,1,21.86,70.8Z"/><path class="cls-4" d="M28.71,70.8a2.63,2.63,0,0,1-1.94-.69,2.72,2.72,0,0,1-.68-2v-1a2.38,2.38,0,0,1,2.62-2.62,2.4,2.4,0,0,1,2.63,2.62v1a2.63,2.63,0,0,1-.69,1.94A2.6,2.6,0,0,1,28.71,70.8Zm0-1.55a1,1,0,0,0,.75-.28,1.12,1.12,0,0,0,.27-.8v-1a1.1,1.1,0,0,0-.27-.79,1.14,1.14,0,0,0-1.5,0,1.1,1.1,0,0,0-.27.79v1A1.12,1.12,0,0,0,28,69,1,1,0,0,0,28.71,69.25Z"/><path class="cls-4" d="M32.8,70.71V64.63h1.61v6.08Zm3.52,0V67a.93.93,0,0,0-.26-.7,1,1,0,0,0-.72-.24.9.9,0,0,0-.69.25,1,1,0,0,0-.24.7l-.12-1.35a2.29,2.29,0,0,1,.64-.85,1.53,1.53,0,0,1,1-.3,1.82,1.82,0,0,1,1.49.65A2.83,2.83,0,0,1,37.92,67v3.69Z"/><path class="cls-4" d="M39,66V64.63h3V66Zm2.17,4.74A1.5,1.5,0,0,1,40,70.33a1.79,1.79,0,0,1-.37-1.2V62.86h1.61v5.87a.55.55,0,0,0,.09.34.3.3,0,0,0,.26.12H42v1.55Z"/><path class="cls-4" d="M46,70.8A2.86,2.86,0,0,1,44,70.09a2.72,2.72,0,0,1-.73-2v-.69a3,3,0,0,1,.7-2.1,2.59,2.59,0,0,1,2-.75,2.19,2.19,0,0,1,1.87.89,4.11,4.11,0,0,1,.66,2.5v.4H44.29V67.24H47V67.1a1.51,1.51,0,0,0-.33-.81,1,1,0,0,0-.72-.29,1.19,1.19,0,0,0-.9.35,1.39,1.39,0,0,0-.32,1v.77a1.3,1.3,0,0,0,.35,1,1.33,1.33,0,0,0,1,.34,2.05,2.05,0,0,0,.64-.11,2,2,0,0,0,.57-.33l1,.93a3.51,3.51,0,0,1-1.07.67A3.12,3.12,0,0,1,46,70.8Z"/><path class="cls-4" d="M49.09,70.71l2.15-3.36,1,1.11-1.4,2.25Zm3.95,0-1.5-2.51-2.35-3.57H51l1.45,2.46,2.39,3.62Zm-.29-2.8-.94-1.12,1.13-2.16h1.77Z"/><path class="cls-4" d="M55.41,66V64.63h3V66Zm2.17,4.74a1.53,1.53,0,0,1-1.18-.41,1.79,1.79,0,0,1-.36-1.2V62.86h1.61v5.87a.63.63,0,0,0,.08.34.31.31,0,0,0,.26.12h.4v1.55Z"/><path class="cls-4" d="M62.32,70.71l3.25-8.52h1l3.26,8.52H68.12l-2-5.82-2,5.82Zm1.56-1.36V67.8h4.48v1.55Z"/><path class="cls-4" d="M70.91,70.71V62.19h1.6v8.52Zm.73-3.3V65.86h2.72a.94.94,0,0,0,.71-.29,1.07,1.07,0,0,0,.27-.76,1.09,1.09,0,0,0-.27-.78.93.93,0,0,0-.71-.29H71.64V62.19h2.68a2.88,2.88,0,0,1,1.41.33,2.35,2.35,0,0,1,.94.91,3,3,0,0,1,0,2.75,2.42,2.42,0,0,1-.94.91,3,3,0,0,1-1.41.32Z"/><path class="cls-4" d="M79.81,62.19v8.52H78.14V62.19Z"/><ellipse class="cls-5" cx="49.44" cy="39" rx="19.47" ry="7.72" transform="translate(-7.78 65.29) rotate(-62.95)"/><ellipse class="cls-5" cx="49.44" cy="39" rx="19.47" ry="7.72"/><ellipse class="cls-5" cx="49.22" cy="39.54" rx="7.72" ry="19.47" transform="translate(-13.39 31.43) rotate(-31.4)"/><circle class="cls-6" cx="49.22" cy="39.54" r="4.22"/></g></g><g id="hooks"><g class="cls-7"><rect class="cls-3" x="90.57" y="-19.3" width="132.86" height="132.86"/></g></g></g></svg>