<svg id="frontend" xmlns="http://www.w3.org/2000/svg" xmlns:xlink="http://www.w3.org/1999/xlink" viewBox="0 0 132.16 129.07"><defs><style>.cls-1,.cls-5{fill:none;}.cls-2{clip-path:url(#clip-path);}.cls-3{fill:#212121;}.cls-4{fill:#00b8e9;}.cls-5{stroke:#36a9e1;stroke-miterlimit:10;stroke-width:3px;}.cls-6{fill:#36a9e1;}</style><clipPath id="clip-path"><ellipse class="cls-1" cx="66.08" cy="64.53" rx="48.2" ry="47.05"/></clipPath></defs><g id="context"><g class="cls-2"><rect class="cls-3" x="-0.35" y="-1.81" width="132.86" height="132.86"/><path class="cls-4" d="M39.74,88.29a3.54,3.54,0,0,1-1.66-.37,2.46,2.46,0,0,1-1-1.09,3.64,3.64,0,0,1-.37-1.72V82.77A3.64,3.64,0,0,1,37,81.05a2.49,2.49,0,0,1,1-1.08,3.42,3.42,0,0,1,1.66-.38,3,3,0,0,1,1.44.35,2.86,2.86,0,0,1,1,1,4.53,4.53,0,0,1,.57,1.59H41.13a2.13,2.13,0,0,0-.29-.72,1.34,1.34,0,0,0-.47-.45,1.23,1.23,0,0,0-.63-.16,1.34,1.34,0,0,0-1,.41,1.67,1.67,0,0,0-.37,1.16v2.34a1.65,1.65,0,0,0,.37,1.16,1.34,1.34,0,0,0,1,.41,1.19,1.19,0,0,0,.89-.35,1.8,1.8,0,0,0,.5-1H42.8a4.53,4.53,0,0,1-.58,1.59,2.84,2.84,0,0,1-1,1A3,3,0,0,1,39.74,88.29Z"/><path class="cls-4" d="M46.59,88.29a2.59,2.59,0,0,1-1.94-.7,2.67,2.67,0,0,1-.68-2v-1A2.37,2.37,0,0,1,46.59,82a2.38,2.38,0,0,1,2.63,2.62v1a2.63,2.63,0,0,1-.69,1.94A2.6,2.6,0,0,1,46.59,88.29Zm0-1.55a1,1,0,0,0,.75-.28,1.12,1.12,0,0,0,.27-.8v-1a1.08,1.08,0,0,0-.27-.79,1.14,1.14,0,0,0-1.5,0,1.08,1.08,0,0,0-.27.79v1a1.12,1.12,0,0,0,.27.8A1,1,0,0,0,46.59,86.74Z"/><path class="cls-4" d="M50.68,88.2V82.12h1.61V88.2Zm3.52,0V84.51a.9.9,0,0,0-.26-.69,1,1,0,0,0-.72-.24.9.9,0,0,0-.69.25.94.94,0,0,0-.24.7l-.12-1.35a2.29,2.29,0,0,1,.64-.85,1.53,1.53,0,0,1,1-.3,1.82,1.82,0,0,1,1.49.65,2.83,2.83,0,0,1,.52,1.83V88.2Z"/><path class="cls-4" d="M56.92,83.49V82.12h3v1.37Zm2.17,4.74a1.47,1.47,0,0,1-1.18-.42,1.75,1.75,0,0,1-.37-1.19V80.35h1.61v5.87a.57.57,0,0,0,.09.34.3.3,0,0,0,.26.12h.39v1.55Z"/><path class="cls-4" d="M63.91,88.29a2.85,2.85,0,0,1-2.06-.71,2.73,2.73,0,0,1-.73-2v-.68a3,3,0,0,1,.7-2.11,2.62,2.62,0,0,1,2-.74,2.19,2.19,0,0,1,1.87.89,4.11,4.11,0,0,1,.66,2.5v.39H62.17V84.73h2.69l0-.14a1.43,1.43,0,0,0-.32-.81,1,1,0,0,0-.72-.29,1.18,1.18,0,0,0-.9.34,1.41,1.41,0,0,0-.32,1v.78a1.3,1.3,0,0,0,.35,1,1.37,1.37,0,0,0,1,.34,1.81,1.81,0,0,0,.64-.12,1.78,1.78,0,0,0,.57-.32l1,.93a3.51,3.51,0,0,1-1.07.67A3.12,3.12,0,0,1,63.91,88.29Z"/><path class="cls-4" d="M67,88.2l2.15-3.36,1,1.1-1.4,2.26Zm4,0-1.5-2.51-2.35-3.57h1.77l1.45,2.45,2.39,3.63Zm-.29-2.8-.94-1.13,1.13-2.15h1.77Z"/><path class="cls-4" d="M73.29,83.49V82.12h3v1.37Zm2.17,4.74a1.5,1.5,0,0,1-1.18-.42,1.75,1.75,0,0,1-.36-1.19V80.35h1.61v5.87a.66.66,0,0,0,.08.34.31.31,0,0,0,.26.12h.4v1.55Z"/><path class="cls-4" d="M80.2,88.2l3.25-8.52h1l3.26,8.52H86l-2-5.82-2,5.82Zm1.56-1.37V85.29h4.48v1.54Z"/><path class="cls-4" d="M88.79,88.2V79.68h1.6V88.2Zm.73-3.31V83.35h2.72a.94.94,0,0,0,.71-.29,1.1,1.1,0,0,0,.27-.77,1.08,1.08,0,0,0-.27-.77.89.89,0,0,0-.71-.29H89.52V79.68H92.2a3,3,0,0,1,1.41.32,2.44,2.44,0,0,1,.94.92,3,3,0,0,1,0,2.74,2.35,2.35,0,0,1-.94.91,2.88,2.88,0,0,1-1.41.32Z"/><path class="cls-4" d="M97.69,79.68V88.2H96V79.68Z"/><ellipse class="cls-5" cx="67.32" cy="56.49" rx="19.47" ry="7.72" transform="translate(-13.61 90.75) rotate(-62.95)"/><ellipse class="cls-5" cx="67.32" cy="56.49" rx="19.47" ry="7.72"/><ellipse class="cls-5" cx="67.1" cy="57.02" rx="7.72" ry="19.47" transform="translate(-19.88 43.31) rotate(-31.4)"/><circle class="cls-6" cx="67.1" cy="57.02" r="4.22"/></g></g></svg>