<svg id="frontend" xmlns="http://www.w3.org/2000/svg" xmlns:xlink="http://www.w3.org/1999/xlink" viewBox="0 0 131.2 129.07"><defs><style>.cls-1,.cls-5{fill:none;}.cls-2{clip-path:url(#clip-path);}.cls-3{fill:#212121;}.cls-4{fill:#39a8e0;}.cls-5{stroke:#36a9e1;stroke-miterlimit:10;stroke-width:3px;}.cls-6{fill:#36a9e1;}</style><clipPath id="clip-path"><ellipse class="cls-1" cx="65.6" cy="64.53" rx="48.2" ry="47.05"/></clipPath></defs><g id="hooks"><g class="cls-2"><rect class="cls-3" x="-0.83" y="-1.81" width="132.86" height="132.86"/><path class="cls-4" d="M60.55,26.25a2,2,0,0,1,2,2,2,2,0,0,1-3.93,0,1.91,1.91,0,0,1,.19-.83A2,2,0,0,1,60.55,26.25Zm43.53,27.62a19.39,19.39,0,0,1-2.49,8.56,42.94,42.94,0,0,1-9,11.16l8.61-1.79A35.24,35.24,0,1,1,57.59,31.11,4.13,4.13,0,0,0,64.26,30a4,4,0,0,0,.42-1.8,3.92,3.92,0,0,0-.3-1.54,4.13,4.13,0,0,0-8,1.26,39.05,39.05,0,1,0,49.12,43,38.86,38.86,0,0,0-1.46-17Z"/><ellipse class="cls-5" cx="65.93" cy="63.82" rx="28.95" ry="11.47" transform="translate(-20.9 93.51) rotate(-62.95)"/><ellipse class="cls-5" cx="65.93" cy="63.82" rx="28.95" ry="11.47"/><ellipse class="cls-5" cx="65.6" cy="64.62" rx="11.47" ry="28.95" transform="matrix(0.85, -0.52, 0.52, 0.85, -24.06, 43.64)"/><circle class="cls-6" cx="65.6" cy="64.62" r="6.27"/></g></g></svg>