<svg id="frontend" xmlns="http://www.w3.org/2000/svg" xmlns:xlink="http://www.w3.org/1999/xlink" viewBox="0 0 131.2 126.4"><defs><style>.cls-1{fill:none;}.cls-2{clip-path:url(#clip-path);}.cls-3{fill:#212121;}.cls-4{fill:#009fe3;}.cls-5{fill:#36a9e1;}</style><clipPath id="clip-path"><ellipse class="cls-1" cx="65.6" cy="63.2" rx="48.2" ry="47.05"/></clipPath></defs><g id="agyle"><g class="cls-2"><rect class="cls-3" x="-0.83" y="-3.14" width="132.86" height="132.86"/><path class="cls-4" d="M88.72,61.83A20.54,20.54,0,0,1,68.18,82.37H33.8l2.71-3L33.8,76.71H68.18a14.86,14.86,0,1,0-14-9.71L58,65.38l-2,5-1.58,4.06L51,73.12,45.23,70.9,49,69.25a20.54,20.54,0,1,1,39.7-7.42Z"/><path class="cls-5" d="M62.21,40.46l-5.64,1.88L52.9,43.56,54.59,40a4.39,4.39,0,0,0-4.93,1.72c-1.1,2-1.39,4.53.89,6.43L49,50.46l-1.25,2.6-.17-.13c-5.14-4.19-5.41-10.55-2.33-14.64A10.6,10.6,0,0,1,57.1,34.77l1.76-3.7,2.67,7.41.65,1.83Z"/><path class="cls-5" d="M91.07,86.42V82.15H78a22.12,22.12,0,0,0,7.32-5.37h5.71V72.65l6.33,6.94Z"/></g></g></svg>