<svg xmlns="http://www.w3.org/2000/svg" xmlns:xlink="http://www.w3.org/1999/xlink" viewBox="0 0 96.4 94.09"><defs><style>.cls-1{fill:none;}.cls-2{clip-path:url(#clip-path);}.cls-3{fill:#212121;}.cls-4{fill:#009fe3;}.cls-5{fill:#36a9e1;}</style><clipPath id="clip-path"><ellipse class="cls-1" cx="48.2" cy="47.05" rx="48.2" ry="47.05"/></clipPath></defs><g id="frontend"><g id="agyle"><g class="cls-2"><rect class="cls-3" x="-18.23" y="-19.3" width="132.86" height="132.86"/><path class="cls-4" d="M71.32,45.68A20.54,20.54,0,0,1,50.78,66.22H16.4l2.71-3-2.71-2.7H50.78A14.87,14.87,0,1,0,35.91,45.68a14.67,14.67,0,0,0,.92,5.16l3.73-1.62-2,5L37,58.28,33.62,57l-5.79-2.22,3.79-1.65a20.54,20.54,0,1,1,39.7-7.42Z"/><path class="cls-5" d="M44.81,24.3l-5.64,1.89L35.5,27.41l1.69-3.55a4.41,4.41,0,0,0-4.93,1.73c-1.1,2.05-1.39,4.52.89,6.43l-1.58,2.29-1.25,2.6-.17-.14C25,32.59,24.74,26.23,27.82,22.13A10.61,10.61,0,0,1,39.7,18.61l1.77-3.7,2.66,7.42.65,1.83A.35.35,0,0,1,44.81,24.3Z"/><path class="cls-5" d="M73.67,70.27V66h-13A22.16,22.16,0,0,0,68,60.62h5.7V56.5L80,63.44Z"/></g></g></g></svg>