<svg xmlns="http://www.w3.org/2000/svg" xmlns:xlink="http://www.w3.org/1999/xlink" viewBox="0 0 96.4 94.09"><defs><style>.cls-1,.cls-7{fill:none;}.cls-2{clip-path:url(#clip-path);}.cls-3{fill:#212121;}.cls-4{clip-path:url(#clip-path-2);}.cls-5{clip-path:url(#clip-path-3);}.cls-6{fill:#39a8e0;}.cls-7{stroke:#36a9e1;stroke-miterlimit:10;stroke-width:3px;}.cls-8{fill:#36a9e1;}</style><clipPath id="clip-path"><ellipse class="cls-1" cx="160.65" cy="47.05" rx="48.2" ry="47.05"/></clipPath><clipPath id="clip-path-2"><ellipse class="cls-1" cx="-60.6" cy="47.05" rx="48.2" ry="47.05"/></clipPath><clipPath id="clip-path-3"><ellipse class="cls-1" cx="48.2" cy="47.05" rx="48.2" ry="47.05"/></clipPath></defs><g id="frontend"><g id="REACT"><g class="cls-2"><rect class="cls-3" x="94.22" y="-19.3" width="132.86" height="132.86"/></g></g><g id="context"><g class="cls-4"><rect class="cls-3" x="-127.03" y="-19.3" width="132.86" height="132.86"/></g></g><g id="hooks"><g class="cls-5"><rect class="cls-3" x="-18.23" y="-19.3" width="132.86" height="132.86"/><path class="cls-6" d="M43.15,8.76a2,2,0,0,1,2,2,2,2,0,0,1-3.93,0,1.91,1.91,0,0,1,.19-.83A2,2,0,0,1,43.15,8.76ZM86.68,36.38a19.39,19.39,0,0,1-2.49,8.56,42.94,42.94,0,0,1-9,11.16l8.61-1.79A35.24,35.24,0,1,1,40.19,13.62a4.13,4.13,0,0,0,6.67-1.09,4,4,0,0,0,.42-1.8A3.92,3.92,0,0,0,47,9.19a4.13,4.13,0,0,0-8,1.26,39.05,39.05,0,1,0,49.12,43,38.86,38.86,0,0,0-1.46-17Z"/><ellipse class="cls-7" cx="48.53" cy="46.33" rx="28.95" ry="11.47" transform="translate(-14.81 68.48) rotate(-62.95)"/><ellipse class="cls-7" cx="48.53" cy="46.33" rx="28.95" ry="11.47"/><ellipse class="cls-7" cx="48.2" cy="47.13" rx="11.47" ry="28.95" transform="matrix(0.85, -0.52, 0.52, 0.85, -17.5, 32.01)"/><circle class="cls-8" cx="48.2" cy="47.13" r="6.27"/></g></g></g></svg>