<svg xmlns="http://www.w3.org/2000/svg" xmlns:xlink="http://www.w3.org/1999/xlink" viewBox="0 0 96.4 94.09"><defs><style>.cls-1{fill:none;}.cls-2{clip-path:url(#clip-path);}.cls-3{fill:#212121;}.cls-4{fill:#664c9a;}</style><clipPath id="clip-path"><ellipse class="cls-1" cx="47.91" cy="47.05" rx="48.2" ry="47.05"/></clipPath></defs><g id="frontend"><g id="redux"><g class="cls-2"><rect class="cls-3" x="-18.52" y="-19.3" width="132.86" height="132.86"/><path class="cls-4" d="M66.31,30.9l-4.79-1.46C60.2,19.56,54.15,13.66,48,13.66c-10.13.49-15.68,9.58-15.68,21.46A26.75,26.75,0,0,0,37.13,51l.54,0a5.08,5.08,0,0,1,5.06,4.69c0,.13,0,.26,0,.39a5.08,5.08,0,0,1-5.07,5.07,5.08,5.08,0,0,1-5.08-5.07,5,5,0,0,1,1-3,30.48,30.48,0,0,1-5.47-17.92c0-14.14,8.56-25.6,19.12-25.6C56.81,9.52,65.41,17.61,66.31,30.9Z"/><path class="cls-4" d="M51.77,71.32l3.59-3.48c9.28,3.63,17.38,1.2,20.35-4.18,4.48-9.09-.78-18.35-11.18-24.11a26.75,26.75,0,0,0-16.22-3.5,4.44,4.44,0,0,1-.24.49,5.07,5.07,0,0,1-6.55,2.15l-.35-.17a5.08,5.08,0,0,1,4.92-8.88A5,5,0,0,1,48.25,32a30.49,30.49,0,0,1,18.32,3.9C78.94,42.72,84.82,55.76,79.7,65,75.07,73.37,63.82,77,51.77,71.32Z"/><path class="cls-4" d="M24.85,39l1.31,4.83C18.48,50.18,16.69,58.44,20,63.65c5.79,8.32,16.44,8.2,26.51,1.9a26.76,26.76,0,0,0,10.92-12.5c-.11-.14-.21-.29-.31-.44a5.08,5.08,0,0,1,1.29-6.78l.32-.22A5.08,5.08,0,1,1,61,55,30.43,30.43,0,0,1,48.69,69.11c-12,7.51-26.23,6.33-31.84-2.62C11.78,58.38,14.06,46.8,24.85,39Z"/></g></g></g></svg>