<svg id="frontend" xmlns="http://www.w3.org/2000/svg" xmlns:xlink="http://www.w3.org/1999/xlink" viewBox="0 0 142.4 129.07"><defs><style>.cls-1{fill:none;}.cls-2{clip-path:url(#clip-path);}.cls-3{fill:#212121;}.cls-4{fill:#664c9a;}</style><clipPath id="clip-path"><ellipse class="cls-1" cx="73.33" cy="64.53" rx="48.2" ry="47.05"/></clipPath></defs><g id="redux"><g class="cls-2"><rect class="cls-3" x="6.9" y="-1.81" width="132.86" height="132.86"/><path class="cls-4" d="M91.73,48.38l-4.79-1.46c-1.31-9.87-7.37-15.77-13.51-15.77-10.12.49-15.68,9.58-15.68,21.46a26.79,26.79,0,0,0,4.8,15.88l.54,0a5.07,5.07,0,0,1,5.06,4.69c0,.12,0,.26,0,.38A5,5,0,0,1,66.82,77,5.07,5.07,0,0,1,58,73.54a4.94,4.94,0,0,1,1-3,30.45,30.45,0,0,1-5.47-17.92c0-14.14,8.56-25.6,19.11-25.6C82.23,27,90.84,35.1,91.73,48.38Z"/><path class="cls-4" d="M77.19,88.81l3.6-3.48c9.27,3.63,17.37,1.19,20.34-4.18,4.48-9.1-.78-18.36-11.18-24.11a26.75,26.75,0,0,0-16.22-3.5c-.07.17-.15.33-.23.48a5.09,5.09,0,0,1-6.56,2.16L66.6,56a5.08,5.08,0,1,1,7.07-6.55A30.49,30.49,0,0,1,92,53.36c12.37,6.85,18.25,19.89,13.14,29.12C100.49,90.85,89.25,94.46,77.19,88.81Z"/><path class="cls-4" d="M50.27,56.48l1.31,4.83c-7.67,6.36-9.46,14.62-6.21,19.82,5.8,8.33,16.44,8.21,26.51,1.91A26.76,26.76,0,0,0,82.8,70.54c-.11-.14-.21-.29-.31-.44a5.09,5.09,0,0,1,1.3-6.78l.31-.22a5.1,5.1,0,0,1,7,1.61,5.08,5.08,0,0,1-1.61,7,5,5,0,0,1-3.09.75A30.45,30.45,0,0,1,74.12,86.6c-12,7.5-26.24,6.33-31.84-2.62C37.2,75.87,39.49,64.29,50.27,56.48Z"/></g></g></svg>